<?xml version="1.0" encoding="UTF-8"?>
<svg version="1.1" xmlns="http://www.w3.org/2000/svg" width="224" height="224">
<path d="M0 0 C73.92 0 147.84 0 224 0 C224 73.92 224 147.84 224 224 C150.08 224 76.16 224 0 224 C0 150.08 0 76.16 0 0 Z " fill="#21C8D7" transform="translate(0,0)"/>
<path d="M0 0 C73.92 0 147.84 0 224 0 C224 73.92 224 147.84 224 224 C150.08 224 76.16 224 0 224 C0 150.08 0 76.16 0 0 Z M92.49609375 19.48828125 C87.07349408 21.36806598 81.54096072 22.82678011 76 24.3125 C75.01314209 24.57885254 74.02628418 24.84520508 73.00952148 25.11962891 C70.67371889 25.74909495 68.33725057 26.375936 66 27 C66 27.66 66 28.32 66 29 C64.89140625 29.10570312 63.7828125 29.21140625 62.640625 29.3203125 C57.51123547 29.96317794 52.69105559 31.39376059 47.75 32.875 C45.89109087 33.42085984 44.03171735 33.9651408 42.171875 34.5078125 C41.28306641 34.76723633 40.39425781 35.02666016 39.47851562 35.29394531 C35.47222605 36.43521693 31.43209223 37.41755002 27.375 38.359375 C24.81875226 39.04888919 22.43799026 39.97256125 20 41 C19.42170099 73.68723965 24.280298 105.00939234 35 136 C35.66 136 36.32 136 37 136 C37.03738281 136.59167969 37.07476562 137.18335938 37.11328125 137.79296875 C37.21189453 138.97826172 37.21189453 138.97826172 37.3125 140.1875 C37.37050781 140.96480469 37.42851563 141.74210937 37.48828125 142.54296875 C38.11239665 145.53967551 39.33951038 147.43065116 41 150 C42.25154729 152.22829832 43.50142066 154.4575373 44.75 156.6875 C48.17440627 162.71423477 51.81898374 168.46104684 56 174 C56.99773438 175.32257813 56.99773438 175.32257813 58.015625 176.671875 C64.43022006 184.84010036 72.20840384 193.30139609 81 199 C81.99 199 82.98 199 84 199 C84 199.66 84 200.32 84 201 C86.35223997 202.2745084 88.70666931 203.54465898 91.0625 204.8125 C91.71927734 205.16892578 92.37605469 205.52535156 93.05273438 205.89257812 C102.00538322 210.69966543 110.11548717 214.33150936 120.45703125 211.2734375 C122.72345227 210.29701093 124.84835856 209.20787092 127 208 C127.79664062 207.56816406 128.59328125 207.13632813 129.4140625 206.69140625 C130.93540006 205.85640502 132.45059946 205.01003965 133.95703125 204.1484375 C135.94275468 203.03217997 137.95463689 202.00199811 140 201 C140 200.34 140 199.68 140 199 C140.5775 198.896875 141.155 198.79375 141.75 198.6875 C144.35661158 197.89103535 145.9735311 196.80934723 148 195 C148 194.34 148 193.68 148 193 C148.58910156 192.72671875 149.17820313 192.4534375 149.78515625 192.171875 C155.56430084 189.11412654 160.11643364 184.17808848 164 179 C164 178.34 164 177.68 164 177 C164.99 176.67 165.98 176.34 167 176 C168.57045217 173.85900902 169.98684726 171.75403883 171.375 169.5 C171.77420654 168.86360596 172.17341309 168.22721191 172.5847168 167.5715332 C176.88788687 160.66388192 180.81711333 153.73501249 184.0078125 146.23828125 C184.77668018 144.50378841 185.62332508 142.80367035 186.5 141.12109375 C187.99525435 138.00987441 188.96709189 135.07631822 189.875 131.75 C190.21273437 130.52023438 190.55046875 129.29046875 190.8984375 128.0234375 C191.07600586 127.36956055 191.25357422 126.71568359 191.43652344 126.04199219 C192.01338606 123.95149003 192.61682164 121.87019678 193.2265625 119.7890625 C200.84664531 93.56330196 203.43766961 68.27018341 203 41 C199.50755198 39.51983328 196.09534133 38.45528687 192.40625 37.58203125 C186.38443323 36.11430543 180.44341382 34.44317077 174.5 32.6875 C172.94804932 32.23129272 172.94804932 32.23129272 171.36474609 31.76586914 C168.24237008 30.84657999 165.12116959 29.92337534 162 29 C160.63536621 28.5987793 160.63536621 28.5987793 159.24316406 28.18945312 C149.3689209 25.28591585 139.55374915 22.26644125 129.82080078 18.91577148 C116.76165136 14.45584554 105.41140598 15.00055853 92.49609375 19.48828125 Z " fill="#E7E7E4" transform="translate(0,0)"/>
<path d="M0 0 C0.33 0 0.66 0 1 0 C2.20824808 45.06317847 -7.35228908 96.76907149 -36 133 C-36.66 133 -37.32 133 -38 133 C-38.27328125 133.58910156 -38.5465625 134.17820313 -38.828125 134.78515625 C-41.88587346 140.56430084 -46.82191152 145.11643364 -52 149 C-52.66 149 -53.32 149 -54 149 C-54 149.66 -54 150.32 -54 151 C-58.35294118 155 -58.35294118 155 -62 155 C-62 155.66 -62 156.32 -62 157 C-68.4924241 160.76720904 -75.14425019 163.95300008 -82 167 C-82.66 167.33 -83.32 167.66 -84 168 C-94.2918743 169.72718306 -101.52101147 165.86854731 -110.19824219 160.99755859 C-112.75723816 159.58074863 -115.3745518 158.28833913 -118 157 C-118 156.34 -118 155.68 -118 155 C-118.56074219 154.92136719 -119.12148437 154.84273437 -119.69921875 154.76171875 C-122.78044187 153.74161941 -124.45366264 152.03017859 -126.8125 149.8125 C-129.77458347 147.05545029 -132.7339958 144.36329391 -135.875 141.8125 C-138.91405609 139.24428359 -140.89346114 136.38550888 -143 133 C-143.7266687 132.2742981 -143.7266687 132.2742981 -144.46801758 131.53393555 C-146.0076114 129.9923789 -147.09875337 128.48167946 -148.26171875 126.64453125 C-148.65810547 126.02255859 -149.05449219 125.40058594 -149.46289062 124.75976562 C-149.86701172 124.11716797 -150.27113281 123.47457031 -150.6875 122.8125 C-151.10322266 122.15830078 -151.51894531 121.50410156 -151.94726562 120.83007812 C-152.9683003 119.22224191 -153.98461863 117.61141236 -155 116 C-152.42222913 111.53623292 -150.46071041 108.94642708 -145.5625 107.0625 C-142.5761037 105.82423812 -140.49885602 104.02609947 -138 102 C-137.34 102 -136.68 102 -136 102 C-136 101.34 -136 100.68 -136 100 C-135.34 100 -134.68 100 -134 100 C-134 99.34 -134 98.68 -134 98 C-132.20963542 97.0234375 -130.41927083 96.046875 -128.62890625 95.0703125 C-126.83381685 94.08589976 -126.83381685 94.08589976 -126 92 C-122.21388773 92.54087318 -120.44599233 94.11722332 -118 97 C-118 97.66 -118 98.32 -118 99 C-117.46375 99.26683594 -116.9275 99.53367187 -116.375 99.80859375 C-114.62091628 100.68852062 -112.87161286 101.57799178 -111.125 102.47265625 C-110.09375 102.99730469 -109.0625 103.52195312 -108 104.0625 C-106.96875 104.58972656 -105.9375 105.11695313 -104.875 105.66015625 C-96.1357633 109.73292553 -83.35568216 109.3712936 -74.1875 106.625 C-72.78075061 106.11235039 -71.38249013 105.57486912 -70 105 C-68.453125 104.4121875 -68.453125 104.4121875 -66.875 103.8125 C-66.25625 103.544375 -65.6375 103.27625 -65 103 C-65 102.34 -65 101.68 -65 101 C-64.01 101 -63.02 101 -62 101 C-62 100.34 -62 99.68 -62 99 C-60.97267747 98.12366724 -59.90132698 97.29862789 -58.8125 96.5 C-52.84766135 91.57357455 -50.08448227 84.30032012 -48 77 C-46.89155621 64.1550926 -48.95127102 54.68611973 -56 44 C-56.33 43.34 -56.66 42.68 -57 42 C-54.82575883 39.49962266 -53.26954202 38.56371414 -50 38 C-50 37.34 -50 36.68 -50 36 C-49.236875 35.731875 -48.47375 35.46375 -47.6875 35.1875 C-44.45112086 33.75747201 -42.87089533 32.02923994 -40.625 29.375 C-39 28 -39 28 -36.4375 27.5625 C-33.82682205 27.26012621 -33.82682205 27.26012621 -32.6875 24.9375 C-32.460625 24.298125 -32.23375 23.65875 -32 23 C-31.34 23 -30.68 23 -30 23 C-30 22.34 -30 21.68 -30 21 C-28.03501678 19.61558 -26.02951535 18.28796166 -24 17 C-22.88625 16.13375 -22.88625 16.13375 -21.75 15.25 C-20 14 -20 14 -18 14 C-18 13.34 -18 12.68 -18 12 C-16.2984375 11.3503125 -16.2984375 11.3503125 -14.5625 10.6875 C-13.386875 10.130625 -12.21125 9.57375 -11 9 C-10.67 8.01 -10.34 7.02 -10 6 C-7.01540871 4.04457812 -5.73585209 4 -2 4 C-1.34 2.68 -0.68 1.36 0 0 Z " fill="#9D2BDD" transform="translate(202,44)"/>
<path d="M0 0 C2.28131379 1.7016966 4.43784483 3.48588839 6.5859375 5.3515625 C7.91625 6.434375 7.91625 6.434375 9.2734375 7.5390625 C14.32362153 13.68117821 18.30414503 21.32047715 18.5859375 29.3515625 C18.69421875 30.78242187 18.69421875 30.78242187 18.8046875 32.2421875 C19.2901025 42.48444399 16.31248646 50.87688414 10.5859375 59.3515625 C9.9259375 59.3515625 9.2659375 59.3515625 8.5859375 59.3515625 C8.3178125 59.9909375 8.0496875 60.6303125 7.7734375 61.2890625 C6.5859375 63.3515625 6.5859375 63.3515625 3.5859375 64.3515625 C3.5859375 65.0115625 3.5859375 65.6715625 3.5859375 66.3515625 C2.5959375 66.3515625 1.6059375 66.3515625 0.5859375 66.3515625 C0.5859375 67.0115625 0.5859375 67.6715625 0.5859375 68.3515625 C-9.64728734 74.74732803 -20.57249771 75.66787001 -32.4140625 74.3515625 C-39.89557447 72.49651547 -46.56310122 69.38611058 -52.4140625 64.3515625 C-52.4140625 63.6915625 -52.4140625 63.0315625 -52.4140625 62.3515625 C-53.4040625 62.0215625 -54.3940625 61.6915625 -55.4140625 61.3515625 C-63.20538408 52.80624206 -65.9038214 43.87016881 -65.66015625 32.50390625 C-64.66451062 19.75015981 -59.9184338 10.9698123 -50.34375 2.6640625 C-48.4140625 1.3515625 -48.4140625 1.3515625 -46.234375 0.8515625 C-45.63367188 0.6865625 -45.03296875 0.5215625 -44.4140625 0.3515625 C-44.0840625 -0.6384375 -43.7540625 -1.6284375 -43.4140625 -2.6484375 C-31.07240542 -9.15390967 -11.23313593 -7.67052324 0 0 Z " fill="#F0F9F1" transform="translate(136.4140625,78.6484375)"/>
<path d="M0 0 C-0.66 0.66 -1.32 1.32 -2 2 C-0.68 2.66 0.64 3.32 2 4 C-2.75 7 -2.75 7 -5 7 C-5.28875 7.78375 -5.5775 8.5675 -5.875 9.375 C-7 12 -7 12 -9 14 C-9.95517819 21.09848215 -9.90233444 27.63060039 -5.46875 33.48046875 C-0.8554978 38.25322169 4.19021591 38.28066445 10.4453125 38.6875 C13.55857807 39.06832759 15.48184208 40.16861242 18 42 C18.721875 42.12375 19.44375 42.2475 20.1875 42.375 C20.785625 42.58125 21.38375 42.7875 22 43 C22.28875 43.804375 22.5775 44.60875 22.875 45.4375 C23.79704705 48.33663628 23.79704705 48.33663628 27.125 49.3125 C28.548125 49.6528125 28.548125 49.6528125 30 50 C30.495 52.97 30.495 52.97 31 56 C37.93 56.495 37.93 56.495 45 57 C45 53.37 45 49.74 45 46 C51.38807947 45.51788079 51.38807947 45.51788079 54.0625 47.625 C55.38214824 50.96810888 54.38636891 52.78946147 53 56 C52.34 56 51.68 56 51 56 C50.731875 56.639375 50.46375 57.27875 50.1875 57.9375 C49 60 49 60 46 61 C46 61.66 46 62.32 46 63 C45.01 63 44.02 63 43 63 C43 63.66 43 64.32 43 65 C32.76677516 71.39576553 21.84156479 72.31630751 10 71 C2.51848803 69.14495297 -4.14903872 66.03454808 -10 61 C-10 60.34 -10 59.68 -10 59 C-10.99 58.67 -11.98 58.34 -13 58 C-20.79132158 49.45467956 -23.4897589 40.51860631 -23.24609375 29.15234375 C-22.55709917 20.32665133 -20.41528225 11.45972993 -14 5 C-11.63942774 3.89936508 -9.58250428 3.50637339 -7 3 C-6.67 2.01 -6.34 1.02 -6 0 C-3 -1 -3 -1 0 0 Z " fill="#F3F1FA" transform="translate(94,82)"/>
<path d="M0 0 C0 0.66 0 1.32 0 2 C0.60328125 2.1134375 1.2065625 2.226875 1.828125 2.34375 C4.78694597 3.23778224 6.32225927 4.88694727 8.06640625 7.38671875 C9.37594906 11.05234276 8.93492813 14.49787936 8.6875 18.3125 C8.43548503 23.05835595 8.3957801 26.02867439 10.9609375 30.15234375 C14.70291874 33.8887064 18.60654848 36.79078472 23.125 39.5 C26 42 26 42 26.42578125 44.51953125 C26.4375 47.3125 26.4375 47.3125 26 52 C21.38 52 16.76 52 12 52 C12 50.02 12 48.04 12 46 C9.69 45.34 7.38 44.68 5 44 C4.67 42.35 4.34 40.7 4 39 C2.329375 38.814375 2.329375 38.814375 0.625 38.625 C-3 38 -3 38 -5 36 C-7.4296662 35.68626381 -7.4296662 35.68626381 -10.1875 35.625 C-16.38437554 35.13087005 -20.08535377 34.01105947 -24.53515625 29.4140625 C-28.38304989 24.33355669 -28.74809261 19.31187872 -28.48046875 13.0625 C-27.52102996 6.94705273 -24.63510792 4.30141243 -19.9375 0.5625 C-14.07118182 -2.46110893 -6.18735337 -1.81633524 0 0 Z " fill="#FB8006" transform="translate(112,86)"/>
<path d="M0 0 C3.78611227 0.54087318 5.55400767 2.11722332 8 5 C8 5.66 8 6.32 8 7 C8.9590625 7.433125 8.9590625 7.433125 9.9375 7.875 C12 9 12 9 13 11 C11.68 10.67 10.36 10.34 9 10 C9 9.34 9 8.68 9 8 C7.68 7.67 6.36 7.34 5 7 C4.67 7.99 4.34 8.98 4 10 C4 9.34 4 8.68 4 8 C1.36 8 -1.28 8 -4 8 C-4.28875 9.134375 -4.5775 10.26875 -4.875 11.4375 C-5.24625 12.613125 -5.6175 13.78875 -6 15 C-8 16 -8 16 -11.3125 16.25 C-15.90837479 17.18475419 -17.37957364 18.10906389 -20 22 C-20.40271849 25.37663965 -20.29553817 28.61772979 -20 32 C-17.36 32 -14.72 32 -12 32 C-12.0928125 33.670625 -12.0928125 33.670625 -12.1875 35.375 C-12.125625 36.57125 -12.06375 37.7675 -12 39 C-11.01 39.66 -10.02 40.32 -9 41 C-8.3125 43.625 -8.3125 43.625 -8 46 C-6.68 45.01 -5.36 44.02 -4 43 C-3.67 44.65 -3.34 46.3 -3 48 C-0.69 48 1.62 48 4 48 C4.495 52.455 4.495 52.455 5 57 C6.32 57.33 7.64 57.66 9 58 C9 57.34 9 56.68 9 56 C9.99 56.33 10.98 56.66 12 57 C11.95875 57.9075 11.9175 58.815 11.875 59.75 C11.99531556 62.8782046 12.3914708 64.38614006 14 67 C11.03 66.01 11.03 66.01 8 65 C8 64.34 8 63.68 8 63 C7.43925781 62.92136719 6.87851563 62.84273437 6.30078125 62.76171875 C3.21955813 61.74161941 1.54633736 60.03017859 -0.8125 57.8125 C-3.77458347 55.05545029 -6.7339958 52.36329391 -9.875 49.8125 C-12.91405609 47.24428359 -14.89346114 44.38550888 -17 41 C-17.4844458 40.51619873 -17.9688916 40.03239746 -18.46801758 39.53393555 C-20.0076114 37.9923789 -21.09875337 36.48167946 -22.26171875 34.64453125 C-22.65810547 34.02255859 -23.05449219 33.40058594 -23.46289062 32.75976562 C-23.86701172 32.11716797 -24.27113281 31.47457031 -24.6875 30.8125 C-25.10322266 30.15830078 -25.51894531 29.50410156 -25.94726562 28.83007812 C-26.9683003 27.22224191 -27.98461863 25.61141236 -29 24 C-26.42222913 19.53623292 -24.46071041 16.94642708 -19.5625 15.0625 C-16.5761037 13.82423812 -14.49885602 12.02609947 -12 10 C-11.34 10 -10.68 10 -10 10 C-10 9.34 -10 8.68 -10 8 C-9.34 8 -8.68 8 -8 8 C-8 7.34 -8 6.68 -8 6 C-6.20963542 5.0234375 -4.41927083 4.046875 -2.62890625 3.0703125 C-0.83381685 2.08589976 -0.83381685 2.08589976 0 0 Z " fill="#D35EE4" transform="translate(76,136)"/>
<path d="M0 0 C0.99 0 1.98 0 3 0 C3.268125 0.804375 3.53625 1.60875 3.8125 2.4375 C4.204375 3.283125 4.59625 4.12875 5 5 C5.99 5.33 6.98 5.66 8 6 C8.02717692 8.06242617 8.0464758 10.12495703 8.0625 12.1875 C8.07410156 13.33605469 8.08570313 14.48460938 8.09765625 15.66796875 C8 19 8 19 7.40625 21.625 C6.91550939 24.4939451 7.42738002 26.10537846 8.4375 28.8125 C8.72496094 29.60269531 9.01242188 30.39289063 9.30859375 31.20703125 C9.53675781 31.79871094 9.76492187 32.39039063 10 33 C10.495 32.505 10.495 32.505 11 32 C12.66617115 31.95936168 14.33388095 31.957279 16 32 C16 40 16 48 16 56 C18.64 56 21.28 56 24 56 C24 57.65 24 59.3 24 61 C23.01 61 22.02 61 21 61 C21 61.66 21 62.32 21 63 C22.485 62.505 22.485 62.505 24 62 C24 62.66 24 63.32 24 64 C26.64 63.01 29.28 62.02 32 61 C32 59.35 32 57.7 32 56 C37.75 55.875 37.75 55.875 40 57 C38.72899403 60.81301791 37.27998015 61.71827468 34 64 C32.824375 64.495 31.64875 64.99 30.4375 65.5 C27.09904694 66.95677952 25.34888559 68.27529272 23 71 C17.48642764 64.69877445 13 56.55728657 13 48 C12.34 48 11.68 48 11 48 C5.90611772 33.69377742 -0.5805379 15.41328119 0 0 Z " fill="#3FE8B9" transform="translate(24,88)"/>
<path d="M0 0 C0.33 0 0.66 0 1 0 C1.26391916 14.15418769 0.70733297 27.9449911 -1 42 C-2.71948485 39.03051422 -3.22039127 37.08547775 -2.9765625 33.671875 C-2.925 32.87265625 -2.8734375 32.0734375 -2.8203125 31.25 C-2.75585938 30.425 -2.69140625 29.6 -2.625 28.75 C-2.53992188 27.48929688 -2.53992188 27.48929688 -2.453125 26.203125 C-2.31209668 24.13470958 -2.15738212 22.0672354 -2 20 C-1.34 20 -0.68 20 0 20 C-0.55312735 15.97007218 -1.1558062 11.97977076 -2 8 C-5.97007156 8.27698174 -7.72389212 8.76684223 -10.8125 11.375 C-13.15731592 13.86461552 -13.15731592 13.86461552 -14 17 C-14.66 17 -15.32 17 -16 17 C-15.505 18.485 -15.505 18.485 -15 20 C-15.69867188 20.02578125 -16.39734375 20.0515625 -17.1171875 20.078125 C-18.02726562 20.13484375 -18.93734375 20.1915625 -19.875 20.25 C-20.77992188 20.29640625 -21.68484375 20.3428125 -22.6171875 20.390625 C-25.14438702 20.75841677 -25.14438702 20.75841677 -26.3203125 22.921875 C-27.103621 24.95240934 -27.103621 24.95240934 -27 27 C-27.62648437 27.26554687 -28.25296875 27.53109375 -28.8984375 27.8046875 C-30.12433594 28.33449219 -30.12433594 28.33449219 -31.375 28.875 C-32.18710938 29.22304687 -32.99921875 29.57109375 -33.8359375 29.9296875 C-36.13802299 30.92446067 -36.13802299 30.92446067 -38 33 C-38.66 33 -39.32 33 -40 33 C-40.99 35.475 -40.99 35.475 -42 38 C-42.99 37.67 -43.98 37.34 -45 37 C-45.66 37.66 -46.32 38.32 -47 39 C-46.67958603 41.60280568 -46.67958603 41.60280568 -46 44 C-47.485 44.495 -47.485 44.495 -49 45 C-49.33 47.31 -49.66 49.62 -50 52 C-53.33557632 49.0094833 -55.15083921 46.06815373 -57 42 C-54.82575883 39.49962266 -53.26954202 38.56371414 -50 38 C-50 37.34 -50 36.68 -50 36 C-49.236875 35.731875 -48.47375 35.46375 -47.6875 35.1875 C-44.45112086 33.75747201 -42.87089533 32.02923994 -40.625 29.375 C-39 28 -39 28 -36.4375 27.5625 C-33.82682205 27.26012621 -33.82682205 27.26012621 -32.6875 24.9375 C-32.460625 24.298125 -32.23375 23.65875 -32 23 C-31.34 23 -30.68 23 -30 23 C-30 22.34 -30 21.68 -30 21 C-28.03501678 19.61558 -26.02951535 18.28796166 -24 17 C-23.2575 16.4225 -22.515 15.845 -21.75 15.25 C-20 14 -20 14 -18 14 C-18 13.34 -18 12.68 -18 12 C-16.865625 11.566875 -15.73125 11.13375 -14.5625 10.6875 C-13.386875 10.130625 -12.21125 9.57375 -11 9 C-10.67 8.01 -10.34 7.02 -10 6 C-7.01540871 4.04457812 -5.73585209 4 -2 4 C-1.34 2.68 -0.68 1.36 0 0 Z " fill="#8E5EE3" transform="translate(202,44)"/>
<path d="M0 0 C0.33 0 0.66 0 1 0 C1.36116046 1.4774746 1.71375048 2.95704675 2.0625 4.4375 C2.35833984 5.67306641 2.35833984 5.67306641 2.66015625 6.93359375 C2.77230469 7.61550781 2.88445312 8.29742187 3 9 C2.67 9.33 2.34 9.66 2 10 C2 10.763125 2 11.52625 2 12.3125 C2 14.76838497 1.69267201 16.66223195 1 19 C-0.32 19.33 -1.64 19.66 -3 20 C-3 25.28 -3 30.56 -3 36 C-4.98 36.495 -4.98 36.495 -7 37 C-7.12375 37.804375 -7.2475 38.60875 -7.375 39.4375 C-7.684375 40.7059375 -7.684375 40.7059375 -8 42 C-8.99 42.495 -8.99 42.495 -10 43 C-10.61432869 45.31850007 -10.61432869 45.31850007 -11 48 C-11.4375 50.75 -11.4375 50.75 -12 53 C-12.99 53.495 -12.99 53.495 -14 54 C-16.7495803 56.08209475 -16.7495803 56.08209475 -19 59 C-19.41831404 62.71000718 -19.41831404 62.71000718 -19 66 C-19.8971875 66.2165625 -19.8971875 66.2165625 -20.8125 66.4375 C-22.56150404 66.8872439 -24.28677023 67.42892341 -26 68 C-26.33 70.31 -26.66 72.62 -27 75 C-30.96 74.505 -30.96 74.505 -35 74 C-31.47957198 68.46789883 -31.47957198 68.46789883 -29.07421875 66.12109375 C-21.50992879 58.38585938 -16.20667438 47.14046059 -11.9921875 37.23828125 C-11.22497402 35.50752014 -10.37970755 33.81124111 -9.50390625 32.1328125 C-7.98213572 28.96278661 -6.99225083 25.95030454 -6.0625 22.5625 C-5.72863281 21.35464844 -5.39476562 20.14679688 -5.05078125 18.90234375 C-4.6995328 17.60182895 -4.34930821 16.30103728 -4 15 C-3.81228027 14.30406738 -3.62456055 13.60813477 -3.43115234 12.89111328 C-2.2745967 8.59743724 -1.13225455 4.30015825 0 0 Z " fill="#F8D4D3" transform="translate(195,109)"/>
<path d="M0 0 C1.98 0 3.96 0 6 0 C5.07887435 6.86079798 2.9701144 12.04339135 -2 17 C-2.66 17 -3.32 17 -4 17 C-4.27328125 17.58910156 -4.5465625 18.17820313 -4.828125 18.78515625 C-7.88587346 24.56430084 -12.82191152 29.11643364 -18 33 C-18.66 33 -19.32 33 -20 33 C-20 33.66 -20 34.32 -20 35 C-24.35294118 39 -24.35294118 39 -28 39 C-28 39.66 -28 40.32 -28 41 C-28.66 41 -29.32 41 -30 41 C-31.85776765 37.86501708 -32.20140476 35.62528568 -32 32 C-29.69 32 -27.38 32 -25 32 C-24.67 29.36 -24.34 26.72 -24 24 C-21.69 24 -19.38 24 -17 24 C-16.34 22.35 -15.68 20.7 -15 19 C-14.01 19 -13.02 19 -12 19 C-12 18.34 -12 17.68 -12 17 C-10.68 16.67 -9.36 16.34 -8 16 C-8 14.35 -8 12.7 -8 11 C-7.34 11 -6.68 11 -6 11 C-5.67 10.01 -5.34 9.02 -5 8 C-3.68 8 -2.36 8 -1 8 C-0.67 5.36 -0.34 2.72 0 0 Z " fill="#8C1BD4" transform="translate(168,160)"/>
<path d="M0 0 C6.38807947 -0.48211921 6.38807947 -0.48211921 9.0625 1.625 C10.38214824 4.96810888 9.38636891 6.78946147 8 10 C7.34 10 6.68 10 6 10 C5.731875 10.639375 5.46375 11.27875 5.1875 11.9375 C4 14 4 14 1 15 C1 15.66 1 16.32 1 17 C0.01 17 -0.98 17 -2 17 C-2 17.66 -2 18.32 -2 19 C-8.75 23 -8.75 23 -11 23 C-11 22.34 -11 21.68 -11 21 C-13.64 21.66 -16.28 22.32 -19 23 C-18.91621094 22.36191406 -18.83242187 21.72382813 -18.74609375 21.06640625 C-18.59333984 19.82697266 -18.59333984 19.82697266 -18.4375 18.5625 C-18.33308594 17.73878906 -18.22867188 16.91507813 -18.12109375 16.06640625 C-18.08113281 15.38449219 -18.04117188 14.70257813 -18 14 C-18.33 13.67 -18.66 13.34 -19 13 C-19.04092937 10.66702567 -19.04241723 8.33294775 -19 6 C-18.34 6 -17.68 6 -17 6 C-17 6.99 -17 7.98 -17 9 C-13.53287889 10.15570704 -10.4585044 10.32835293 -6.8125 10.5625 C-4.90404297 10.68818359 -4.90404297 10.68818359 -2.95703125 10.81640625 C-1.98121094 10.87699219 -1.00539062 10.93757812 0 11 C0 7.37 0 3.74 0 0 Z " fill="#E7F3FA" transform="translate(139,128)"/>
<path d="M0 0 C0.495 2.97 0.495 2.97 1 6 C-1.64 6.33 -4.28 6.66 -7 7 C-7 9.31 -7 11.62 -7 14 C-10 14 -13 14 -16 14 C-18.00401011 14.30830925 -20.00511766 14.63729412 -22 15 C-22.33 17.31 -22.66 19.62 -23 22 C-27.58332006 22.02901401 -32.16661651 22.04680348 -36.75 22.0625 C-38.05195312 22.07087891 -39.35390625 22.07925781 -40.6953125 22.08789062 C-42.57089844 22.09272461 -42.57089844 22.09272461 -44.484375 22.09765625 C-46.21252441 22.10551147 -46.21252441 22.10551147 -47.97558594 22.11352539 C-50.51926964 22.01804485 -52.58398313 21.74917261 -55 21 C-54.6875 19.0625 -54.6875 19.0625 -54 17 C-51 16 -51 16 -48.5625 16.4375 C-39.43198033 17.879161 -32.10447726 17.56425434 -24 13 C-23.20335938 12.5565625 -22.40671875 12.113125 -21.5859375 11.65625 C-20.06297807 10.80299586 -18.54757181 9.93600308 -17.04296875 9.05078125 C-15.02744533 8.01411624 -13.21297804 7.45254158 -11 7 C-11 6.34 -11 5.68 -11 5 C-9.36935236 3.94228261 -7.69719127 2.94726954 -6 2 C-3 0 -3 0 0 0 Z " fill="#F7EBD0" transform="translate(151,194)"/>
<path d="M0 0 C0 0.66 0 1.32 0 2 C-0.99 2.33 -1.98 2.66 -3 3 C-4.22969878 6.51190809 -4.22969878 6.51190809 -5 10 C-7.64 9.67 -10.28 9.34 -13 9 C-13.95502158 10.72476911 -13.95502158 10.72476911 -14 13 C-11.64573501 15.77122275 -11.64573501 15.77122275 -9 18 C-10.58272601 19.58272601 -12.38034003 19.34735747 -14.5625 19.5625 C-15.80193359 19.68818359 -15.80193359 19.68818359 -17.06640625 19.81640625 C-17.70449219 19.87699219 -18.34257813 19.93757813 -19 20 C-19.66 22.31 -20.32 24.62 -21 27 C-23.4533107 25.14696745 -23.96758836 24.19987178 -24.46875 21.109375 C-24.57320278 9.88070143 -24.57320278 9.88070143 -20.53125 5.3671875 C-13.9376883 -0.51992116 -8.60865093 -0.50888577 0 0 Z " fill="#F36613" transform="translate(108,85)"/>
<path d="M0 0 C2.64 0 5.28 0 8 0 C6.09507392 15.32470385 2.68923525 30.63103406 -3 45 C-4.03047821 47.99014831 -5.01993696 50.99298839 -6 54 C-6.66 54 -7.32 54 -8 54 C-8 46.74 -8 39.48 -8 32 C-5.69 32 -3.38 32 -1 32 C-0.505 27.545 -0.505 27.545 0 23 C0.66 23 1.32 23 2 23 C1.34 22.34 0.68 21.68 0 21 C-0.23046875 17.84765625 -0.23046875 17.84765625 -0.1875 14.0625 C-0.18105469 12.81597656 -0.17460937 11.56945312 -0.16796875 10.28515625 C0 7 0 7 1 4 C0.61067144 1.85744207 0.61067144 1.85744207 0 0 Z " fill="#6B11D0" transform="translate(192,88)"/>
<path d="M0 0 C1.15371094 0.38414063 2.30742187 0.76828125 3.49609375 1.1640625 C4.32238281 1.43992187 5.14867187 1.71578125 6 2 C6 2.33 6 2.66 6 3 C2.04172765 3.05785647 -1.9164367 3.09354717 -5.875 3.125 C-7.00292969 3.14175781 -8.13085938 3.15851562 -9.29296875 3.17578125 C-10.90751953 3.18544922 -10.90751953 3.18544922 -12.5546875 3.1953125 C-14.04718018 3.21102295 -14.04718018 3.21102295 -15.56982422 3.22705078 C-18 3 -18 3 -20 1 C-20.86625 1.556875 -20.86625 1.556875 -21.75 2.125 C-22.4925 2.41375 -23.235 2.7025 -24 3 C-25.33333333 2.33333333 -26.66666667 1.66666667 -28 1 C-28.61875 1.33 -29.2375 1.66 -29.875 2 C-32 3 -32 3 -35.25 2.125 C-36.1575 1.75375 -37.065 1.3825 -38 1 C-38.66 1.66 -39.32 2.32 -40 3 C-42.68839385 3.26991906 -45.29141936 3.08737357 -48 3 C-44.93882432 0.37613513 -44.26826873 0 -40 0 C-40 -0.66 -40 -1.32 -40 -2 C-26.6645395 -8.53165412 -13.21604563 -4.51012933 0 0 Z " fill="#1AB2E8" transform="translate(136,21)"/>
<path d="M0 0 C8.57142857 -0.28571429 8.57142857 -0.28571429 12 2 C11.25 3.9375 11.25 3.9375 10 6 C7.9375 6.625 7.9375 6.625 6 7 C5.67 7.66 5.34 8.32 5 9 C4.01 9 3.02 9 2 9 C3.11854586 12.72614153 3.11854586 12.72614153 6 15 C5.67 16.32 5.34 17.64 5 19 C4.01 18.34 3.02 17.68 2 17 C2 16.34 2 15.68 2 15 C0.68 14.67 -0.64 14.34 -2 14 C-2 13.34 -2 12.68 -2 12 C-8.93 11.505 -8.93 11.505 -16 11 C-14.68 10.34 -13.36 9.68 -12 9 C-12 8.34 -12 7.68 -12 7 C-13.98 7 -15.96 7 -18 7 C-17.67 6.34 -17.34 5.68 -17 5 C-17.66 4.67 -18.32 4.34 -19 4 C-17.35 3.67 -15.7 3.34 -14 3 C-14 3.66 -14 4.32 -14 5 C-13.34 4.67 -12.68 4.34 -12 4 C-12.33 3.01 -12.66 2.02 -13 1 C-8.71 1 -4.42 1 0 1 C0 0.67 0 0.34 0 0 Z " fill="#FCF9ED" transform="translate(114,74)"/>
<path d="M0 0 C13.25889186 2.99394332 26.20869529 7.22716604 39.1640625 11.30859375 C40.28554687 11.66050781 41.40703125 12.01242188 42.5625 12.375 C43.49191406 12.67148437 44.42132813 12.96796875 45.37890625 13.2734375 C48.23436932 14.06496676 51.07130022 14.56134012 54 15 C54 15.33 54 15.66 54 16 C49.89584811 16.02898097 45.79172247 16.0467922 41.6875 16.0625 C40.52025391 16.07087891 39.35300781 16.07925781 38.15039062 16.08789062 C36.47299805 16.09272461 36.47299805 16.09272461 34.76171875 16.09765625 C33.2142395 16.10551147 33.2142395 16.10551147 31.63549805 16.11352539 C29 16 29 16 26 15 C25.01 15.495 25.01 15.495 24 16 C24 13.69 24 11.38 24 9 C18.82682579 7.93690433 13.87630664 7.88306062 8.625 7.9375 C7.37783203 7.94426758 7.37783203 7.94426758 6.10546875 7.95117188 C4.07028103 7.96286836 2.03513077 7.98080065 0 8 C0 5.36 0 2.72 0 0 Z " fill="#24AAF0" transform="translate(144,24)"/>
<path d="M0 0 C1.32 0 2.64 0 4 0 C4 0.66 4 1.32 4 2 C5.98 1.67 7.96 1.34 10 1 C10.33 2.32 10.66 3.64 11 5 C11.66 5 12.32 5 13 5 C13.33 6.32 13.66 7.64 14 9 C17.52692672 7.86983745 17.52692672 7.86983745 21 6 C22.05167527 3.42267086 22.05167527 3.42267086 22 1 C25 3 28 5 31 7 C31.41394695 10.36676852 31.13087567 13.59723255 31 17 C26.38 17 21.76 17 17 17 C17 15.02 17 13.04 17 11 C14.69 10.34 12.38 9.68 10 9 C9.67 7.35 9.34 5.7 9 4 C7.88625 3.896875 6.7725 3.79375 5.625 3.6875 C3.830625 3.3471875 3.830625 3.3471875 2 3 C1.34 2.01 0.68 1.02 0 0 Z " fill="#F6B31B" transform="translate(107,121)"/>
<path d="M0 0 C1.9375 0.375 1.9375 0.375 4 1 C4.33 1.66 4.66 2.32 5 3 C6.80779605 3.80681555 6.80779605 3.80681555 9 4.4375 C13.78252555 5.91192493 13.78252555 5.91192493 16.03515625 6.82421875 C23.42873242 9.74461011 31.14934416 9.72065151 39 10 C39 10.33 39 10.66 39 11 C36.03 11 33.06 11 30 11 C30 11.66 30 12.32 30 13 C31.32 13.33 32.64 13.66 34 14 C33.34 14.33 32.68 14.66 32 15 C34.31 15.33 36.62 15.66 39 16 C39 16.33 39 16.66 39 17 C35.75007554 17.05819424 32.50028565 17.09366116 29.25 17.125 C28.32960938 17.14175781 27.40921875 17.15851563 26.4609375 17.17578125 C25.57148437 17.18222656 24.68203125 17.18867188 23.765625 17.1953125 C22.54020996 17.21102295 22.54020996 17.21102295 21.29003906 17.22705078 C18.78112482 16.97829916 17.16604375 16.25700129 15 15 C15 13.02 15 11.04 15 9 C13.7625 9 12.525 9 11.25 9 C7.16666667 9 3.08333333 9 -1 9 C-1.08886184 5.80097361 -0.91058531 3.07322544 0 0 Z " fill="#C13FE1" transform="translate(81,143)"/>
<path d="M0 0 C0.99 0.33 1.98 0.66 3 1 C2.731875 1.7425 2.46375 2.485 2.1875 3.25 C-1.82111382 15.90878049 -4.34904165 27.37433413 1 40 C1.28617188 40.69609375 1.57234375 41.3921875 1.8671875 42.109375 C2.55587493 43.74910698 3.27448444 45.37622708 4 47 C3.34 47 2.68 47 2 47 C1.505 45.515 1.505 45.515 1 44 C0.34 43.67 -0.32 43.34 -1 43 C-1.33 43.66 -1.66 44.32 -2 45 C-2.07347656 44.09507812 -2.07347656 44.09507812 -2.1484375 43.171875 C-2.22320312 42.37265625 -2.29796875 41.5734375 -2.375 40.75 C-2.44460937 39.96109375 -2.51421875 39.1721875 -2.5859375 38.359375 C-3.01507113 35.914123 -3.78600638 34.15163097 -5 32 C-5.66 32.66 -6.32 33.32 -7 34 C-7.99 34 -8.98 34 -10 34 C-10 27.73 -10 21.46 -10 15 C-8.02 15 -6.04 15 -4 15 C-3.87882812 14.28972656 -3.75765625 13.57945313 -3.6328125 12.84765625 C-3.46523437 11.92855469 -3.29765625 11.00945312 -3.125 10.0625 C-2.96257812 9.14597656 -2.80015625 8.22945312 -2.6328125 7.28515625 C-2.42398438 6.53105469 -2.21515625 5.77695313 -2 5 C-1.34 4.67 -0.68 4.34 0 4 C0 2.68 0 1.36 0 0 Z " fill="#1DD9C4" transform="translate(74,89)"/>
<path d="M0 0 C1.32 0.33 2.64 0.66 4 1 C3.67 1.99 3.34 2.98 3 4 C2.67 4 2.34 4 2 4 C2 4.66 2 5.32 2 6 C2.66 6.33 3.32 6.66 4 7 C4.26391211 40.20826367 4.26391211 40.20826367 2 47 C0.68 46.67 -0.64 46.34 -2 46 C-1.90150757 44.89362183 -1.90150757 44.89362183 -1.80102539 43.76489258 C-1.01940406 34.4076866 -0.68885793 25.06981933 -0.4375 15.6875 C-0.39416715 14.15689289 -0.35054901 12.62629383 -0.30664062 11.09570312 C-0.2011494 7.39722207 -0.09947934 3.69864823 0 0 Z " fill="#FBDFF3" transform="translate(204,41)"/>
<path d="M0 0 C-0.33 0.33 -0.66 0.66 -1 1 C-0.34 1.66 0.32 2.32 1 3 C-5.625 4 -5.625 4 -9 4 C-11.10231241 4.00469206 -11.10231241 4.00469206 -13 5 C-15.09090241 9.18180482 -15.12397673 12.93207232 -15 17.48046875 C-15 21.2870831 -15.45372085 25.03307424 -15.87890625 28.8125 C-15.91886719 29.534375 -15.95882813 30.25625 -16 31 C-15.67 31.33 -15.34 31.66 -15 32 C-14.91348389 33.41570123 -14.89295096 34.835595 -14.90234375 36.25390625 C-14.90556641 37.10791016 -14.90878906 37.96191406 -14.91210938 38.84179688 C-14.92048828 39.73962891 -14.92886719 40.63746094 -14.9375 41.5625 C-14.94201172 42.46419922 -14.94652344 43.36589844 -14.95117188 44.29492188 C-14.96299775 46.53001314 -14.9794778 48.76497437 -15 51 C-17.32112584 46.76426985 -17.6758233 42.93752052 -18.125 38.1875 C-18.20991699 37.32543945 -18.29483398 36.46337891 -18.38232422 35.57519531 C-19.31479056 25.06477995 -19.18648499 14.5407055 -19 4 C-17.98679687 3.69690918 -17.98679687 3.69690918 -16.953125 3.38769531 C-15.61507813 2.98695801 -15.61507813 2.98695801 -14.25 2.578125 C-12.92742188 2.18222168 -12.92742188 2.18222168 -11.578125 1.77832031 C-10.00236638 1.30260834 -8.42880999 0.81941849 -6.859375 0.32324219 C-2.21637427 -1.10818713 -2.21637427 -1.10818713 0 0 Z " fill="#33E3BB" transform="translate(39,37)"/>
<path d="M0 0 C-0.66 0.66 -1.32 1.32 -2 2 C-0.68 2.66 0.64 3.32 2 4 C-2.75 7 -2.75 7 -5 7 C-5.28875 7.78375 -5.5775 8.5675 -5.875 9.375 C-7 12 -7 12 -9 14 C-9.28222404 17.02542609 -9.28222404 17.02542609 -9.1875 20.4375 C-9.18105469 21.59121094 -9.17460938 22.74492188 -9.16796875 23.93359375 C-9.13302925 27.0406891 -9.13302925 27.0406891 -8 30 C-8.99 30.33 -9.98 30.66 -11 31 C-13.32665486 21.44490286 -14.74822418 13.60742833 -12 4 C-10.35 3.67 -8.7 3.34 -7 3 C-6.67 2.01 -6.34 1.02 -6 0 C-3 -1 -3 -1 0 0 Z " fill="#F7F2E7" transform="translate(94,82)"/>
<path d="M0 0 C1.08667969 0.01804687 2.17335937 0.03609375 3.29296875 0.0546875 C4.54013672 0.08949219 4.54013672 0.08949219 5.8125 0.125 C5.1525 2.105 4.4925 4.085 3.8125 6.125 C5.4625 4.805 7.1125 3.485 8.8125 2.125 C8.8125 4.105 8.8125 6.085 8.8125 8.125 C11.4525 8.125 14.0925 8.125 16.8125 8.125 C16.8125 8.785 16.8125 9.445 16.8125 10.125 C14.8325 10.785 12.8525 11.445 10.8125 12.125 C10.8125 12.785 10.8125 13.445 10.8125 14.125 C7.58090889 12.62834145 4.81880936 10.77442968 1.9375 8.6875 C-1.67376417 6.12328876 -5.14943123 3.93150445 -9.1875 2.125 C-5.66070901 -0.22619399 -4.15870515 -0.08943452 0 0 Z " fill="#27AEE6" transform="translate(135.1875,71.875)"/>
<path d="M0 0 C0.59167969 0.08378906 1.18335938 0.16757812 1.79296875 0.25390625 C6.208281 0.82292692 9.62994185 0.92001224 14 0 C16.34165499 0.26871451 18.67884289 0.59038404 21 1 C17.91190305 2.76462683 16.76687864 3 13 3 C13 3.66 13 4.32 13 5 C11.67935547 5.29003906 11.67935547 5.29003906 10.33203125 5.5859375 C8.58986328 5.97652344 8.58986328 5.97652344 6.8125 6.375 C5.66394531 6.63023438 4.51539063 6.88546875 3.33203125 7.1484375 C0.06277236 7.90121421 0.06277236 7.90121421 -2.67578125 9.1015625 C-5 10 -5 10 -9 10 C-9 9.34 -9 8.68 -9 8 C-7.68 8 -6.36 8 -5 8 C-4.67 6.35 -4.34 4.7 -4 3 C-2.68 3 -1.36 3 0 3 C0 2.01 0 1.02 0 0 Z " fill="#C3ECFC" transform="translate(53,24)"/>
<path d="M0 0 C3.5875213 1.33250791 6.8364623 2.830717 10 5 C10 5.66 10 6.32 10 7 C10.886875 7.2475 11.77375 7.495 12.6875 7.75 C16.10427135 9.03934768 18.2797748 10.59980129 21 13 C17.58725548 13.78005589 14.49709303 14.09202876 11 14 C10.01 14 9.02 14 8 14 C7.34 14 6.68 14 6 14 C5.67 11.36 5.34 8.72 5 6 C2.69 6 0.38 6 -2 6 C-2 2 -2 2 0 0 Z " fill="#EFEFCF" transform="translate(74,194)"/>
<path d="M0 0 C4.29 0 8.58 0 13 0 C13.33 3.3 13.66 6.6 14 10 C17.465 9.505 17.465 9.505 21 9 C19.8125 10.5625 19.8125 10.5625 18 12 C13.4526924 11.60458195 9.67247857 9.51001717 5.6875 7.4375 C4.71973633 6.9434668 4.71973633 6.9434668 3.73242188 6.43945312 C2.15214772 5.63175745 0.57567895 4.81662387 -1 4 C-0.67 2.68 -0.34 1.36 0 0 Z " fill="#B93BDB" transform="translate(91,200)"/>
<path d="M0 0 C1.98 0 3.96 0 6 0 C5.07887435 6.86079798 2.9701144 12.04339135 -2 17 C-2.66 17 -3.32 17 -4 17 C-4.33 17.99 -4.66 18.98 -5 20 C-5.33 20 -5.66 20 -6 20 C-6 18.35 -6 16.7 -6 15 C-6.66 15 -7.32 15 -8 15 C-8 13.68 -8 12.36 -8 11 C-7.34 11 -6.68 11 -6 11 C-5.67 10.01 -5.34 9.02 -5 8 C-3.68 8 -2.36 8 -1 8 C-0.67 5.36 -0.34 2.72 0 0 Z " fill="#8016D5" transform="translate(168,160)"/>
<path d="M0 0 C2.64 0 5.28 0 8 0 C7.6889315 2.06271639 7.37608484 4.12516466 7.0625 6.1875 C6.88847656 7.33605469 6.71445313 8.48460938 6.53515625 9.66796875 C6.27025391 11.31732422 6.27025391 11.31732422 6 13 C5.91621094 13.90363281 5.83242187 14.80726562 5.74609375 15.73828125 C5 18 5 18 2.4375 19.8125 C1.633125 20.204375 0.82875 20.59625 0 21 C-0.02699725 18.72923158 -0.04639453 16.45837179 -0.0625 14.1875 C-0.07990234 12.29064453 -0.07990234 12.29064453 -0.09765625 10.35546875 C0 7 0 7 1 4 C0.61067144 1.85744207 0.61067144 1.85744207 0 0 Z " fill="#7322D4" transform="translate(192,88)"/>
<path d="M0 0 C3.78611227 0.54087318 5.55400767 2.11722332 8 5 C8 5.66 8 6.32 8 7 C8.639375 7.28875 9.27875 7.5775 9.9375 7.875 C12 9 12 9 13 11 C11.68 10.67 10.36 10.34 9 10 C9 9.34 9 8.68 9 8 C7.68 7.67 6.36 7.34 5 7 C4.67 7.99 4.34 8.98 4 10 C4 9.34 4 8.68 4 8 C1.36 8 -1.28 8 -4 8 C-4.66 9.65 -5.32 11.3 -6 13 C-7.98 13 -9.96 13 -12 13 C-11.34 11.35 -10.68 9.7 -10 8 C-9.34 8 -8.68 8 -8 8 C-8 7.34 -8 6.68 -8 6 C-6.20963542 5.0234375 -4.41927083 4.046875 -2.62890625 3.0703125 C-0.83381685 2.08589976 -0.83381685 2.08589976 0 0 Z " fill="#C951E5" transform="translate(76,136)"/>
<path d="M0 0 C1.98 0 3.96 0 6 0 C6.88236337 5.20594389 7.29515147 8.13967924 5 13 C5 14.32 5 15.64 5 17 C4.34 17 3.68 17 3 17 C3.33 18.32 3.66 19.64 4 21 C1.48828125 19.546875 1.48828125 19.546875 -1 17 C-1.49168584 14.03331972 -1.15519613 11.22332035 -0.8125 8.25 C-0.74224609 7.45722656 -0.67199219 6.66445312 -0.59960938 5.84765625 C-0.42327008 3.89616807 -0.2147502 1.94763549 0 0 Z " fill="#F2F8EE" transform="translate(121,96)"/>
<path d="M0 0 C4.61685365 8.36804724 6.36385975 18.65677803 8 28 C6.68 27.67 5.36 27.34 4 27 C4 26.01 4 25.02 4 24 C3.01 24 2.02 24 1 24 C1 23.34 1 22.68 1 22 C0.34 22 -0.32 22 -1 22 C-1.09377123 14.58165418 -1.17402193 7.33763707 0 0 Z " fill="#CEF7EC" transform="translate(25,100)"/>
<path d="M0 0 C1.16305664 0.06574219 1.16305664 0.06574219 2.34960938 0.1328125 C8.0546875 0.4921875 8.0546875 0.4921875 9.1875 1.625 C9.22830783 3.62458364 9.23004356 5.62545254 9.1875 7.625 C1.0176386 6.19433303 -6.86644988 3.98362583 -14.8125 1.625 C-14.8125 1.295 -14.8125 0.965 -14.8125 0.625 C-9.7396753 -0.45914435 -5.1269778 -0.34966601 0 0 Z " fill="#E9DDF8" transform="translate(190.8125,32.375)"/>
<path d="M0 0 C1.65 0.33 3.3 0.66 5 1 C4.06634949 5.85498265 2.04783615 10.96412289 -2 14 C-2.99 14 -3.98 14 -5 14 C-5 14.66 -5 15.32 -5 16 C-5.66 16 -6.32 16 -7 16 C-8.85776765 12.86501708 -9.20140476 10.62528568 -9 7 C-6.69 7 -4.38 7 -2 7 C-1.34 4.69 -0.68 2.38 0 0 Z " fill="#9425D0" transform="translate(145,185)"/>
<path d="M0 0 C0.99 0.33 1.98 0.66 3 1 C3 2.32 3 3.64 3 5 C3.78375 5.12375 4.5675 5.2475 5.375 5.375 C8 6 8 6 10 8 C8.41727399 9.58272601 6.61965997 9.34735747 4.4375 9.5625 C3.61121094 9.64628906 2.78492187 9.73007813 1.93359375 9.81640625 C1.29550781 9.87699219 0.65742187 9.93757813 0 10 C-0.66 12.31 -1.32 14.62 -2 17 C-3.5 16 -3.5 16 -5 14 C-5.44286739 11.27466223 -5.44286739 8.72533777 -5 6 C-3.5 4 -3.5 4 -2 3 C-1.67 3.66 -1.34 4.32 -1 5 C-0.34 4.67 0.32 4.34 1 4 C0.67 2.68 0.34 1.36 0 0 Z " fill="#F96204" transform="translate(89,95)"/>
<path d="M0 0 C0.99 0 1.98 0 3 0 C3.66 7.92 4.32 15.84 5 24 C4.01 24 3.02 24 2 24 C1.67 21.69 1.34 19.38 1 17 C0.34 17.33 -0.32 17.66 -1 18 C-2.51708428 5.33029613 -2.51708428 5.33029613 0 0 Z " fill="#BFF5F7" transform="translate(18,64)"/>
<path d="M0 0 C1.13953125 -0.01417969 2.2790625 -0.02835938 3.453125 -0.04296875 C6.66527045 0.18157696 8.86296626 0.81453095 11.75 2.1875 C7.90655618 4.43288034 3.7861981 5.2901736 -0.5 6.3125 C-1.24507812 6.49425781 -1.99015625 6.67601562 -2.7578125 6.86328125 C-4.5875026 7.30897499 -6.41861575 7.74881959 -8.25 8.1875 C-7.21310046 0.04043218 -7.21310046 0.04043218 0 0 Z " fill="#B8EFF7" transform="translate(32.25,31.8125)"/>
<path d="M0 0 C2.97 0 5.94 0 9 0 C8.938125 1.11375 8.87625 2.2275 8.8125 3.375 C8.874375 4.57125 8.93625 5.7675 9 7 C9.99 7.66 10.98 8.32 12 9 C12.33 9.66 12.66 10.32 13 11 C12.67 11.66 12.34 12.32 12 13 C9.875 13.4375 9.875 13.4375 7 13 C3.40365023 10.03172088 1.27590787 7.08392377 0.125 2.5625 C0.08375 1.716875 0.0425 0.87125 0 0 Z " fill="#D85CE5" transform="translate(55,168)"/>
<path d="M0 0 C0.8971875 0.309375 0.8971875 0.309375 1.8125 0.625 C1.8125 1.615 1.8125 2.605 1.8125 3.625 C-3.42005814 8.625 -3.42005814 8.625 -7.1875 8.625 C-7.5175 9.615 -7.8475 10.605 -8.1875 11.625 C-9.52083333 11.95833333 -10.85416667 12.29166667 -12.1875 12.625 C-12.5175 13.615 -12.8475 14.605 -13.1875 15.625 C-14.8375 15.955 -16.4875 16.285 -18.1875 16.625 C-18.3125 13.75 -18.3125 13.75 -18.1875 10.625 C-17.5275 9.965 -16.8675 9.305 -16.1875 8.625 C-15.48625 8.66625 -14.785 8.7075 -14.0625 8.75 C-9.93581602 8.57057896 -6.64381955 6.83769055 -3.1875 4.625 C-2.8575 3.965 -2.5275 3.305 -2.1875 2.625 C-3.1775 2.295 -4.1675 1.965 -5.1875 1.625 C-2.1875 -0.375 -2.1875 -0.375 0 0 Z " fill="#3C99EF" transform="translate(170.1875,63.375)"/>
<path d="M0 0 C1.4783226 2.95664519 1.06032783 5.74229737 1 9 C0.401875 9.144375 -0.19625 9.28875 -0.8125 9.4375 C-2.56150404 9.8872439 -4.28677023 10.42892341 -6 11 C-6.33 13.31 -6.66 15.62 -7 18 C-9.64 17.67 -12.28 17.34 -15 17 C-12.60542261 13.23709267 -10.19600157 10.09612652 -7 7 C-6.319375 6.13375 -5.63875 5.2675 -4.9375 4.375 C-3 2 -3 2 0 0 Z " fill="#F8DAD1" transform="translate(175,166)"/>
<path d="M0 0 C1.32 0 2.64 0 4 0 C4 0.66 4 1.32 4 2 C5.299375 1.7215625 5.299375 1.7215625 6.625 1.4375 C10.05152628 0.99332067 12.64212371 1.28045508 16 2 C16 3.98 16 5.96 16 8 C12.73086376 9.03115279 10.13958652 8.9638984 6.75 8.5625 C5.41195312 8.40974609 5.41195312 8.40974609 4.046875 8.25390625 C3.37140625 8.17011719 2.6959375 8.08632812 2 8 C3.32 7.34 4.64 6.68 6 6 C6 5.34 6 4.68 6 4 C4.02 4 2.04 4 0 4 C0.33 3.34 0.66 2.68 1 2 C0.34 1.67 -0.32 1.34 -1 1 C-0.67 0.67 -0.34 0.34 0 0 Z " fill="#F8F2DE" transform="translate(96,77)"/>
<path d="M0 0 C0.89203125 0.00902344 1.7840625 0.01804688 2.703125 0.02734375 C3.37859375 0.03894531 4.0540625 0.05054688 4.75 0.0625 C4.75 0.7225 4.75 1.3825 4.75 2.0625 C5.41 2.0625 6.07 2.0625 6.75 2.0625 C6.42 3.0525 6.09 4.0425 5.75 5.0625 C-0.81492112 5.84691153 -6.71837378 6.17164408 -13.25 5.0625 C-9.04730017 0.40951091 -6.13187263 -0.08068253 0 0 Z " fill="#20D4C6" transform="translate(49.25,33.9375)"/>
<path d="M0 0 C0.99 0.33 1.98 0.66 3 1 C4.7543635 0.8882571 6.5052101 0.71444345 8.25 0.5 C12.77416683 0.02535302 16.55213027 0.11042605 21 1 C17.49415743 3.33722838 13.92449951 4.41233172 9.9375 5.625 C9.20466797 5.85445312 8.47183594 6.08390625 7.71679688 6.3203125 C2.27280971 8 2.27280971 8 0 8 C0 5.36 0 2.72 0 0 Z " fill="#CAE6FD" transform="translate(80,16)"/>
<path d="M0 0 C6.6 0.33 13.2 0.66 20 1 C20 1.33 20 1.66 20 2 C17.03 2 14.06 2 11 2 C11 2.66 11 3.32 11 4 C12.32 4.33 13.64 4.66 15 5 C14.01 5.495 14.01 5.495 13 6 C15.31 6.33 17.62 6.66 20 7 C20 7.33 20 7.66 20 8 C17.60347472 8.08139142 15.20974564 8.14067009 12.8125 8.1875 C12.13896484 8.21263672 11.46542969 8.23777344 10.77148438 8.26367188 C6.29135252 8.32923478 3.60559001 7.66743649 0 5 C0.66 4.34 1.32 3.68 2 3 C1.34 2.01 0.68 1.02 0 0 Z " fill="#B126DD" transform="translate(100,152)"/>
<path d="M0 0 C0.33 0 0.66 0 1 0 C1.36116046 1.4774746 1.71375048 2.95704675 2.0625 4.4375 C2.25972656 5.26121094 2.45695313 6.08492188 2.66015625 6.93359375 C2.77230469 7.61550781 2.88445312 8.29742187 3 9 C2.67 9.33 2.34 9.66 2 10 C2 10.763125 2 11.52625 2 12.3125 C2 14.76838497 1.69267201 16.66223195 1 19 C-0.32 19.33 -1.64 19.66 -3 20 C-3 22.64 -3 25.28 -3 28 C-3.66 28.33 -4.32 28.66 -5 29 C-5 28.01 -5 27.02 -5 26 C-5.66 26 -6.32 26 -7 26 C-6.82984375 25.37996094 -6.6596875 24.75992188 -6.484375 24.12109375 C-4.28671631 16.09028779 -2.13922246 8.04651696 0 0 Z " fill="#ECC3DA" transform="translate(195,109)"/>
<path d="M0 0 C0.99 0.33 1.98 0.66 3 1 C2.5978125 2.11375 2.5978125 2.11375 2.1875 3.25 C-1.82111382 15.90878049 -4.34904165 27.37433413 1 40 C1.28617187 40.69609375 1.57234375 41.3921875 1.8671875 42.109375 C2.55587493 43.74910698 3.27448444 45.37622708 4 47 C3.34 47 2.68 47 2 47 C1.505 45.515 1.505 45.515 1 44 C0.34 43.67 -0.32 43.34 -1 43 C-1.33 43.66 -1.66 44.32 -2 45 C-2.06058594 44.36191406 -2.12117188 43.72382813 -2.18359375 43.06640625 C-2.30927734 41.82697266 -2.30927734 41.82697266 -2.4375 40.5625 C-2.55931641 39.32693359 -2.55931641 39.32693359 -2.68359375 38.06640625 C-2.78930815 36.01337975 -2.78930815 36.01337975 -4 35 C-4.0991657 33.37742456 -4.13079777 31.75060169 -4.1328125 30.125 C-4.13410156 29.14015625 -4.13539062 28.1553125 -4.13671875 27.140625 C-4.13285156 26.10421875 -4.12898438 25.0678125 -4.125 24 C-4.13080078 22.44539063 -4.13080078 22.44539063 -4.13671875 20.859375 C-4.13542969 19.87453125 -4.13414063 18.8896875 -4.1328125 17.875 C-4.13168457 16.96492188 -4.13055664 16.05484375 -4.12939453 15.1171875 C-4 13 -4 13 -3 12 C-2.855625 10.845 -2.71125 9.69 -2.5625 8.5 C-2.376875 7.345 -2.19125 6.19 -2 5 C-1.34 4.67 -0.68 4.34 0 4 C0 2.68 0 1.36 0 0 Z " fill="#30CDBE" transform="translate(74,89)"/>
<path d="M0 0 C1.44776427 2.89552854 0.92711665 5.22949798 0.6875 8.4375 C0.56955078 10.16806641 0.56955078 10.16806641 0.44921875 11.93359375 C0 15 0 15 -2 18 C-2.99 18.33 -3.98 18.66 -5 19 C-6.5625 17.875 -6.5625 17.875 -8 16 C-8.14244975 10.01711062 -4.41416307 5.60718028 -1 1 C-0.67 0.67 -0.34 0.34 0 0 Z " fill="#E8EFEE" transform="translate(81,86)"/>
<path d="M0 0 C2 3 2 3 2.75 6 C3.94683908 10.59115319 6.38091459 14.47544222 8.7578125 18.546875 C10 21 10 21 10 24 C8.02 24 6.04 24 4 24 C4 22 4 20 4 18 C3.42710181 16.48778142 2.81681843 14.98962266 2.1875 13.5 C1.85105469 12.6853125 1.51460937 11.870625 1.16796875 11.03125 C0.10775963 8.66659259 0.10775963 8.66659259 -3 8 C-3.33 8.66 -3.66 9.32 -4 10 C-3.125 5.25 -3.125 5.25 -2 3 C-1.34 3 -0.68 3 0 3 C0 2.01 0 1.02 0 0 Z " fill="#D5F2DA" transform="translate(36,136)"/>
<path d="M0 0 C5.75 -0.125 5.75 -0.125 8 1 C6.72899403 4.81301791 5.27998015 5.71827468 2 8 C0.824375 8.495 -0.35125 8.99 -1.5625 9.5 C-4.90095306 10.95677952 -6.65111441 12.27529272 -9 15 C-9.99 13.68 -10.98 12.36 -12 11 C-11.34 11 -10.68 11 -10 11 C-9.67 9.35 -9.34 7.7 -9 6 C-8.67 6.66 -8.34 7.32 -8 8 C-5.36 7.01 -2.72 6.02 0 5 C0 3.35 0 1.7 0 0 Z " fill="#3CE1BE" transform="translate(56,144)"/>
<path d="M0 0 C8.52370072 1.78722757 16.76016023 4.18110745 25 7 C25 7.33 25 7.66 25 8 C22.22858283 8.08089542 19.45952181 8.14044062 16.6875 8.1875 C15.90181641 8.21263672 15.11613281 8.23777344 14.30664062 8.26367188 C13.54931641 8.27333984 12.79199219 8.28300781 12.01171875 8.29296875 C11.31522217 8.3086792 10.61872559 8.32438965 9.90112305 8.34057617 C7.39281604 7.89122619 6.51168489 7.01981426 5 5 C5 4.01 5 3.02 5 2 C3.35 1.67 1.7 1.34 0 1 C0 0.67 0 0.34 0 0 Z " fill="#3BB2E9" transform="translate(117,16)"/>
<path d="M0 0 C1.65 0 3.3 0 5 0 C4.98839844 0.69867188 4.97679687 1.39734375 4.96484375 2.1171875 C4.95582031 3.02726562 4.94679687 3.93734375 4.9375 4.875 C4.92589844 5.77992187 4.91429687 6.68484375 4.90234375 7.6171875 C4.83750743 10.0168585 4.83750743 10.0168585 6 12 C6.66 12 7.32 12 8 12 C7.25749403 16.08378283 6.17076699 20.01939223 5 24 C2.0578452 21.0578452 2.31856264 17.65386499 1.9375 13.6875 C1.78179915 12.17038178 1.62429137 10.65344776 1.46484375 9.13671875 C1.38991699 8.42306152 1.31499023 7.7094043 1.23779297 6.97412109 C0.95403514 4.61840668 0.52194666 2.31411749 0 0 Z " fill="#8D35D1" transform="translate(152,96)"/>
<path d="M0 0 C0.33 1.98 0.66 3.96 1 6 C0.40832031 6.01417969 -0.18335938 6.02835938 -0.79296875 6.04296875 C-6.8261442 6.40712453 -8.72738229 7.61494499 -13 12 C-16.8125 12.3125 -16.8125 12.3125 -20 12 C-18.5998884 9.1997768 -16.73427449 8.43223902 -14 7 C-13.01 7 -12.02 7 -11 7 C-11 6.34 -11 5.68 -11 5 C-9.36935236 3.94228261 -7.69719127 2.94726954 -6 2 C-3 0 -3 0 0 0 Z " fill="#F1D7D1" transform="translate(151,194)"/>
<path d="M0 0 C1.32 0.66 2.64 1.32 4 2 C3.51015625 2.52464844 3.0203125 3.04929687 2.515625 3.58984375 C0.53232279 6.74370319 0.66585844 8.86447851 0.75 12.5625 C0.76546875 13.69816406 0.7809375 14.83382812 0.796875 16.00390625 C0.87737962 19.05102771 0.87737962 19.05102771 2 22 C1.01 22.33 0.02 22.66 -1 23 C-1.72772972 20.0113624 -2.38448347 17.0137513 -3 14 C-3.16371094 13.19949219 -3.32742187 12.39898437 -3.49609375 11.57421875 C-4.18738207 7.33384195 -4.43954289 5.69476133 -2.0625 1.9375 C-1.381875 1.298125 -0.70125 0.65875 0 0 Z " fill="#FAEADF" transform="translate(84,90)"/>
<path d="M0 0 C5.94 0 11.88 0 18 0 C18 2.31 18 4.62 18 7 C11.93078433 5.53889252 5.96668828 3.83402304 0 2 C0 1.34 0 0.68 0 0 Z " fill="#D5E0FC" transform="translate(126,17)"/>
<path d="M0 0 C0.99 0.33 1.98 0.66 3 1 C4.84883683 8.86088178 5.48713927 14.57576801 2 22 C1.34 22 0.68 22 0 22 C0 14.74 0 7.48 0 0 Z " fill="#6F11D6" transform="translate(184,120)"/>
<path d="M0 0 C-0.33 0.33 -0.66 0.66 -1 1 C-0.34 1.66 0.32 2.32 1 3 C-5.625 4 -5.625 4 -9 4 C-11.21117926 4.46903802 -12.97321842 4.98660921 -15 6 C-15.66 5.67 -16.32 5.34 -17 5 C-17.33 12.26 -17.66 19.52 -18 27 C-18.33 27 -18.66 27 -19 27 C-19 19.41 -19 11.82 -19 4 C-14.05 2.515 -14.05 2.515 -9 1 C-7.68 0.5875 -6.36 0.175 -5 -0.25 C-2 -1 -2 -1 0 0 Z " fill="#59DDCE" transform="translate(39,37)"/>
<path d="M0 0 C-0.66 2.31 -1.32 4.62 -2 7 C-6.61251872 8.27241896 -10.31503575 7.83288253 -15 7 C-10.25 3 -10.25 3 -8 3 C-8 2.34 -8 1.68 -8 1 C-5.07175348 0.02391783 -3.04386724 -0.08226668 0 0 Z " fill="#8F23D1" transform="translate(145,144)"/>
<path d="M0 0 C0.99 0.33 1.98 0.66 3 1 C2.95875 1.9075 2.9175 2.815 2.875 3.75 C2.99531556 6.8782046 3.3914708 8.38614006 5 11 C3.02 10.34 1.04 9.68 -1 9 C-1 8.34 -1 7.68 -1 7 C-1.928125 6.9071875 -1.928125 6.9071875 -2.875 6.8125 C-5 6 -5 6 -6.25 3.4375 C-6.4975 2.633125 -6.745 1.82875 -7 1 C-4.69 1.33 -2.38 1.66 0 2 C0 1.34 0 0.68 0 0 Z " fill="#CD44E8" transform="translate(85,192)"/>
<path d="M0 0 C1.99954746 -0.04254356 4.00041636 -0.04080783 6 0 C7 1 7 1 7.3125 3.25 C6.90211023 6.86142999 5.49852479 8.42798919 3 11 C2.34 11 1.68 11 1 11 C0.4254048 7.26513121 0 3.78706732 0 0 Z " fill="#7617CF" transform="translate(176,144)"/>
<path d="M0 0 C0.33 0 0.66 0 1 0 C1 4.29 1 8.58 1 13 C-5.75 14 -5.75 14 -8 14 C-6.25 9.125 -6.25 9.125 -4 8 C-2.87775145 6.11986894 -2.87775145 6.11986894 -1.875 3.9375 C-1.34519531 2.83728516 -1.34519531 2.83728516 -0.8046875 1.71484375 C-0.53914062 1.14894531 -0.27359375 0.58304688 0 0 Z " fill="#8719D3" transform="translate(151,129)"/>
<path d="M0 0 C3.3125 -0.25 3.3125 -0.25 7 0 C8.9375 2 8.9375 2 10 4 C9.34 5.32 8.68 6.64 8 8 C7.01 7.01 6.02 6.02 5 5 C4.34 6.32 3.68 7.64 3 9 C2.01 9 1.02 9 0 9 C0 6.03 0 3.06 0 0 Z " fill="#E6FBFB" transform="translate(139,128)"/>
<path d="M0 0 C0 0.99 0 1.98 0 3 C-1.65 3.66 -3.3 4.32 -5 5 C-5 5.99 -5 6.98 -5 8 C-5 9.32 -5 10.64 -5 12 C-4.34 12 -3.68 12 -3 12 C-2.67 11.34 -2.34 10.68 -2 10 C0.4294516 13.6441774 0.16179575 15.71241272 0 20 C-3.9036874 16.53005564 -6.36588975 12.44775994 -9 8 C-4.67567568 0 -4.67567568 0 0 0 Z " fill="#C677DD" transform="translate(56,152)"/>
<path d="M0 0 C0.99 0 1.98 0 3 0 C2.70703125 2.01822917 2.4140625 4.03645833 2.12109375 6.0546875 C1.8315703 8.08140667 1.8315703 8.08140667 3 10 C1 12 1 12 -1.625 12.125 C-2.40875 12.08375 -3.1925 12.0425 -4 12 C-3.53898164 7.29761275 -2.96823597 3.76737643 0 0 Z " fill="#8625D4" transform="translate(157,116)"/>
<path d="M0 0 C-2.64 0.66 -5.28 1.32 -8 2 C-8 2.66 -8 3.32 -8 4 C-5.69 4.33 -3.38 4.66 -1 5 C-1.66 5.66 -2.32 6.32 -3 7 C-5.45098556 6.60467975 -7.63904279 5.78698574 -10 5 C-10.66 5.66 -11.32 6.32 -12 7 C-14.68839385 7.26991906 -17.29141936 7.08737357 -20 7 C-16.93882432 4.37613513 -16.26826873 4 -12 4 C-12 3.34 -12 2.68 -12 2 C-10.75579353 1.4654744 -9.50429064 0.94791389 -8.25 0.4375 C-7.55390625 0.14746094 -6.8578125 -0.14257812 -6.140625 -0.44140625 C-4 -1 -4 -1 0 0 Z " fill="#2BBEE6" transform="translate(108,17)"/>
<path d="M0 0 C1.32 0.66 2.64 1.32 4 2 C4 2.99 4 3.98 4 5 C3.01 5.33 2.02 5.66 1 6 C0.67 8.31 0.34 10.62 0 13 C-3.05740483 10.24833565 -4.84750161 7.98135808 -6 4 C-5.67 3.34 -5.34 2.68 -5 2 C-4.01 2 -3.02 2 -2 2 C-1.67 2.33 -1.34 2.66 -1 3 C-0.67 2.01 -0.34 1.02 0 0 Z " fill="#A249E0" transform="translate(152,83)"/>
<path d="M0 0 C1.4540625 0.0309375 1.4540625 0.0309375 2.9375 0.0625 C2.9375 2.3725 2.9375 4.6825 2.9375 7.0625 C0.625 7.75 0.625 7.75 -2.0625 8.0625 C-3.9375 6.875 -3.9375 6.875 -5.0625 5.0625 C-4.59175166 1.06113911 -4.12566671 0.08419728 0 0 Z " fill="#D449EB" transform="translate(77.0625,183.9375)"/>
<path d="M0 0 C1.88005784 2.82008676 2.45675093 4.34323664 3.125 7.5625 C3.29257813 8.34753906 3.46015625 9.13257812 3.6328125 9.94140625 C4 12 4 12 4 14 C1.53199953 12.84826645 -0.04783565 11.95216435 -2 10 C-2.265625 8.125 -2.265625 8.125 -2.25 6 C-2.25515625 5.29875 -2.2603125 4.5975 -2.265625 3.875 C-2 2 -2 2 0 0 Z " fill="#FCF0F1" transform="translate(80,101)"/>
<path d="M0 0 C0 1.98 0 3.96 0 6 C-1.65 6.33 -3.3 6.66 -5 7 C-5 7.66 -5 8.32 -5 9 C-6.65 8.67 -8.3 8.34 -10 8 C-9.67 6.68 -9.34 5.36 -9 4 C-8.01 4 -7.02 4 -6 4 C-6 3.34 -6 2.68 -6 2 C-2.25 0 -2.25 0 0 0 Z " fill="#8819D7" transform="translate(162,175)"/>
<path d="M0 0 C1.21816406 0.03480469 1.21816406 0.03480469 2.4609375 0.0703125 C3.68683594 0.09738281 3.68683594 0.09738281 4.9375 0.125 C5.87722656 0.15980469 5.87722656 0.15980469 6.8359375 0.1953125 C6.8359375 0.8553125 6.8359375 1.5153125 6.8359375 2.1953125 C9.4759375 2.1953125 12.1159375 2.1953125 14.8359375 2.1953125 C14.8359375 2.8553125 14.8359375 3.5153125 14.8359375 4.1953125 C12.41896878 4.24942374 10.00321963 4.28903528 7.5859375 4.3203125 C6.90402344 4.33707031 6.22210938 4.35382813 5.51953125 4.37109375 C1.775114 4.40744732 -0.98758977 4.27475599 -4.1640625 2.1953125 C-2.1640625 0.1953125 -2.1640625 0.1953125 0 0 Z " fill="#A521DC" transform="translate(113.1640625,154.8046875)"/>
<path d="M0 0 C1.61648437 0.04060547 1.61648437 0.04060547 3.265625 0.08203125 C4.08546875 0.11683594 4.9053125 0.15164062 5.75 0.1875 C5.75 0.8475 5.75 1.5075 5.75 2.1875 C4.76 2.5175 3.77 2.8475 2.75 3.1875 C1.54117904 5.18766466 1.54117904 5.18766466 0.75 7.1875 C0.75 6.1975 0.75 5.2075 0.75 4.1875 C-2.88 3.8575 -6.51 3.5275 -10.25 3.1875 C-5.93072606 -0.05195545 -5.09798489 -0.16623864 0 0 Z " fill="#F06C1B" transform="translate(102.25,84.8125)"/>
<path d="M0 0 C0.33 1.32 0.66 2.64 1 4 C1.66 4 2.32 4 3 4 C3.05451714 6.04136395 3.09302485 8.08315856 3.125 10.125 C3.14820313 11.26195313 3.17140625 12.39890625 3.1953125 13.5703125 C2.99672109 17.05757767 2.2524801 19.7553862 1 23 C0.15808218 20.0751367 -0.11819313 17.49258344 -0.09765625 14.453125 C-0.09443359 13.60878906 -0.09121094 12.76445313 -0.08789062 11.89453125 C-0.07951172 11.02183594 -0.07113281 10.14914063 -0.0625 9.25 C-0.05798828 8.36183594 -0.05347656 7.47367187 -0.04882812 6.55859375 C-0.037074 4.37232671 -0.02064249 2.18619821 0 0 Z " fill="#E8E4F3" transform="translate(152,104)"/>
<path d="M0 0 C7.45851528 -0.36681223 7.45851528 -0.36681223 9.9375 1.3125 C11 3 11 3 12 6 C7.03083364 5.48594831 2.70973649 4.76615118 -2 3 C-1.34 2.67 -0.68 2.34 0 2 C0 1.34 0 0.68 0 0 Z " fill="#D4DBF9" transform="translate(154,24)"/>
<path d="M0 0 C0.763125 0.0825 1.52625 0.165 2.3125 0.25 C1.85427532 3.71941546 1.42118317 6.92395049 0.3125 10.25 C-1.0075 9.92 -2.3275 9.59 -3.6875 9.25 C-3.6875 7.93 -3.6875 6.61 -3.6875 5.25 C-4.3475 4.92 -5.0075 4.59 -5.6875 4.25 C-3.34903846 0.31153846 -3.34903846 0.31153846 0 0 Z " fill="#DB63EA" transform="translate(54.6875,154.75)"/>
<path d="M0 0 C1.32 0 2.64 0 4 0 C4.33 2.64 4.66 5.28 5 8 C4.01 8.495 4.01 8.495 3 9 C2.67 8.01 2.34 7.02 2 6 C2 10.29 2 14.58 2 19 C1.01 18.34 0.02 17.68 -1 17 C-1.0562279 14.03471821 -0.95683804 11.31149974 -0.6875 8.375 C-0.62626953 7.57320313 -0.56503906 6.77140625 -0.50195312 5.9453125 C-0.34851492 3.96241876 -0.17604307 1.98101481 0 0 Z " fill="#F9ECC8" transform="translate(121,96)"/>
<path d="M0 0 C1.67542976 0.28604898 3.34385343 0.61781233 5 1 C5.38218767 2.65614657 5.71395102 4.32457024 6 6 C5 7 5 7 2.5625 7.1875 C0 7 0 7 -2 5 C-1.46428571 1.46428571 -1.46428571 1.46428571 0 0 Z " fill="#F8E3CD" transform="translate(95,93)"/>
<path d="M0 0 C1.63001953 0.01353516 1.63001953 0.01353516 3.29296875 0.02734375 C4.12441406 0.03894531 4.95585937 0.05054687 5.8125 0.0625 C5.1525 1.7125 4.4925 3.3625 3.8125 5.0625 C2.01926747 4.78062064 0.22792874 4.4866719 -1.5625 4.1875 C-2.56023437 4.02507812 -3.55796875 3.86265625 -4.5859375 3.6953125 C-7.1875 3.0625 -7.1875 3.0625 -9.1875 1.0625 C-5.90230525 -0.03256492 -3.45086585 -0.03710608 0 0 Z " fill="#1DB2E6" transform="translate(135.1875,71.9375)"/>
<path d="M0 0 C12.66970387 3.07517084 12.66970387 3.07517084 18 5 C18 5.33 18 5.66 18 6 C16.88625 5.814375 15.7725 5.62875 14.625 5.4375 C9.65935745 4.79677193 4.93938863 5.34208963 0 6 C0 4.02 0 2.04 0 0 Z " fill="#2EAAEE" transform="translate(144,24)"/>
<path d="M0 0 C3.55780196 0.60990891 6.6828589 1.5783681 10 3 C10 3.33 10 3.66 10 4 C8.35 4.33 6.7 4.66 5 5 C5.99 5.33 6.98 5.66 8 6 C8 6.66 8 7.32 8 8 C1.125 7.125 1.125 7.125 0 6 C-0.04080783 4.00041636 -0.04254356 1.99954746 0 0 Z " fill="#BB29E1" transform="translate(96,152)"/>
<path d="M0 0 C1.79244141 0.01740234 1.79244141 0.01740234 3.62109375 0.03515625 C5.41740234 0.04869141 5.41740234 0.04869141 7.25 0.0625 C8.17683594 0.07410156 9.10367188 0.08570312 10.05859375 0.09765625 C7.6609619 2.4952881 6.72585877 2.44046211 3.43359375 2.72265625 C2.61632812 2.79742187 1.7990625 2.8721875 0.95703125 2.94921875 C0.33054687 2.99820313 -0.2959375 3.0471875 -0.94140625 3.09765625 C-0.61140625 4.08765625 -0.28140625 5.07765625 0.05859375 6.09765625 C-1.59140625 6.09765625 -3.24140625 6.09765625 -4.94140625 6.09765625 C-3.87001683 0.12848661 -3.87001683 0.12848661 0 0 Z " fill="#C7F3FE" transform="translate(28.94140625,31.90234375)"/>
<path d="M0 0 C1.98 0 3.96 0 6 0 C6 1.65 6 3.3 6 5 C2.37 5 -1.26 5 -5 5 C-5.33 4.34 -5.66 3.68 -6 3 C-4.02 2.67 -2.04 2.34 0 2 C0 1.34 0 0.68 0 0 Z " fill="#14C7DB" transform="translate(74,26)"/>
<path d="M0 0 C0.33 0 0.66 0 1 0 C1.1346906 6.94966093 0.75715004 13.71856383 0 20.625 C-0.09539062 21.53378906 -0.19078125 22.44257812 -0.2890625 23.37890625 C-0.52143768 25.58647043 -0.75846489 27.79342261 -1 30 C-2.71948485 27.03051422 -3.22039127 25.08547775 -2.9765625 21.671875 C-2.925 20.87265625 -2.8734375 20.0734375 -2.8203125 19.25 C-2.75585938 18.425 -2.69140625 17.6 -2.625 16.75 C-2.56828125 15.90953125 -2.5115625 15.0690625 -2.453125 14.203125 C-2.31209668 12.13470958 -2.15738212 10.0672354 -2 8 C-1.34 8 -0.68 8 0 8 C0 5.36 0 2.72 0 0 Z " fill="#8448D3" transform="translate(202,56)"/>
<path d="M0 0 C2.64 0 5.28 0 8 0 C8 0.66 8 1.32 8 2 C5.8125 3.7265625 5.8125 3.7265625 3 5.625 C2.071875 6.25664063 1.14375 6.88828125 0.1875 7.5390625 C-0.534375 8.02117187 -1.25625 8.50328125 -2 9 C-2.33 7.68 -2.66 6.36 -3 5 C-2.01 4.34 -1.02 3.68 0 3 C0 2.01 0 1.02 0 0 Z " fill="#28A5F5" transform="translate(176,56)"/>
<path d="M0 0 C1.65 0 3.3 0 5 0 C5 1.65 5 3.3 5 5 C4.01 5 3.02 5 2 5 C2.350625 5.598125 2.70125 6.19625 3.0625 6.8125 C4 9 4 9 3 12 C2.34 11.67 1.68 11.34 1 11 C1 9.02 1 7.04 1 5 C0.34 5 -0.32 5 -1 5 C-0.67 3.35 -0.34 1.7 0 0 Z " fill="#37ECBC" transform="translate(43,144)"/>
<path d="M0 0 C2.64 0 5.28 0 8 0 C7.67 2.64 7.34 5.28 7 8 C6.01 7.34 5.02 6.68 4 6 C3.34 6.66 2.68 7.32 2 8 C1.34 5.36 0.68 2.72 0 0 Z " fill="#792BD7" transform="translate(192,88)"/>
<path d="M0 0 C1.75 0.0625 1.75 0.0625 4 1 C5.59501537 3.24164322 6.74543018 5.53566643 8 8 C5.69 8 3.38 8 1 8 C0.02391783 5.07175348 -0.08226668 3.04386724 0 0 Z " fill="#EAECD3" transform="translate(56,176)"/>
<path d="M0 0 C1.65 0.33 3.3 0.66 5 1 C4 4 4 4 1.85546875 5.421875 C0.97503906 5.86015625 0.09460938 6.2984375 -0.8125 6.75 C-1.68519531 7.19859375 -2.55789062 7.6471875 -3.45703125 8.109375 C-6.19935744 9.06982104 -7.3313431 9.02018585 -10 8 C-10 7.34 -10 6.68 -10 6 C-8.68 6 -7.36 6 -6 6 C-3.2995961 5.35336433 -3.2995961 5.35336433 -1 4 C-0.11306697 1.95894361 -0.11306697 1.95894361 0 0 Z " fill="#9526CE" transform="translate(131,200)"/>
<path d="M0 0 C1.65 0.33 3.3 0.66 5 1 C4.30058404 4.14737182 3.23921302 7.02588876 2 10 C1.34 10 0.68 10 0 10 C0 9.34 0 8.68 0 8 C-0.66 7.67 -1.32 7.34 -2 7 C-1.34 4.69 -0.68 2.38 0 0 Z " fill="#901ADA" transform="translate(145,185)"/>
<path d="M0 0 C0.66 0.33 1.32 0.66 2 1 C-2.625 6.875 -2.625 6.875 -6 8 C-6.73323796 10.01508358 -6.73323796 10.01508358 -7 12 C-7.66 11.67 -8.32 11.34 -9 11 C-8.67 10.34 -8.34 9.68 -8 9 C-8.99 9 -9.98 9 -11 9 C-11 9.66 -11 10.32 -11 11 C-11.66 10.67 -12.32 10.34 -13 10 C-10.82575883 7.49962266 -9.26954202 6.56371414 -6 6 C-6 5.34 -6 4.68 -6 4 C-5.195625 3.71125 -4.39125 3.4225 -3.5625 3.125 C-0.8673532 2.26737432 -0.8673532 2.26737432 0 0 Z " fill="#8560DD" transform="translate(158,76)"/>
<path d="M0 0 C2.64 0 5.28 0 8 0 C7.67 0.66 7.34 1.32 7 2 C7.66 2.66 8.32 3.32 9 4 C8.01 4 7.02 4 6 4 C5.34 5.32 4.68 6.64 4 8 C3.67 7.34 3.34 6.68 3 6 C2.01 6 1.02 6 0 6 C0 4.02 0 2.04 0 0 Z " fill="#A21FDA" transform="translate(120,200)"/>
<path d="M0 0 C0.66 0.33 1.32 0.66 2 1 C2.44921875 2.92578125 2.44921875 2.92578125 2.6875 5.3125 C2.77386719 6.09238281 2.86023438 6.87226562 2.94921875 7.67578125 C2.99984424 9.99287105 2.67173402 11.79287394 2 14 C1.01 13.34 0.02 12.68 -1 12 C-0.67 11.01 -0.34 10.02 0 9 C-0.33 8.34 -0.66 7.68 -1 7 C-1.125 3.9375 -1.125 3.9375 -1 1 C-0.67 0.67 -0.34 0.34 0 0 Z " fill="#FCDBE4" transform="translate(197,107)"/>
<path d="M0 0 C-1.32 0.33 -2.64 0.66 -4 1 C-4.103125 1.61875 -4.20625 2.2375 -4.3125 2.875 C-5 5 -5 5 -8 7 C-10.1875 6.625 -10.1875 6.625 -12 6 C-12 5.34 -12 4.68 -12 4 C-8.53880548 0.73658802 -4.74543363 -2.37271682 0 0 Z " fill="#359DF1" transform="translate(196,49)"/>
<path d="M0 0 C5.53846154 -0.36923077 5.53846154 -0.36923077 7.875 1.5 C8.24625 1.995 8.6175 2.49 9 3 C8.67 3.66 8.34 4.32 8 5 C8.66 5 9.32 5 10 5 C10 5.66 10 6.32 10 7 C8.02 6.34 6.04 5.68 4 5 C4 4.34 4 3.68 4 3 C2.35 3 0.7 3 -1 3 C-0.67 2.01 -0.34 1.02 0 0 Z " fill="#C538E8" transform="translate(91,200)"/>
<path d="M0 0 C0.99 0.66 1.98 1.32 3 2 C3 2.99 3 3.98 3 5 C1.68 5.33 0.36 5.66 -1 6 C-1 5.34 -1 4.68 -1 4 C-3.64 4.66 -6.28 5.32 -9 6 C-9 5.01 -9 4.02 -9 3 C-7.88625 2.814375 -7.88625 2.814375 -6.75 2.625 C-4.19858515 2.04513299 -2.2732427 1.26291261 0 0 Z " fill="#E3EBF5" transform="translate(129,145)"/>
<path d="M0 0 C1.65 0.33 3.3 0.66 5 1 C2.22005549 2.85329634 0.21743449 3.68563605 -2.9375 4.625 C-3.79214844 4.88539062 -4.64679687 5.14578125 -5.52734375 5.4140625 C-8 6 -8 6 -12 6 C-12 5.34 -12 4.68 -12 4 C-10.68 4 -9.36 4 -8 4 C-8 3.01 -8 2.02 -8 1 C-5.36 1.33 -2.72 1.66 0 2 C0 1.34 0 0.68 0 0 Z " fill="#B0EAF4" transform="translate(56,28)"/>
<path d="M0 0 C0.66 0 1.32 0 2 0 C2 2.64 2 5.28 2 8 C1.01 8 0.02 8 -1 8 C-1 6.68 -1 5.36 -1 4 C-2.65 4.33 -4.3 4.66 -6 5 C-5.67 4.01 -5.34 3.02 -5 2 C-3 1.375 -3 1.375 -1 1 C-0.67 0.67 -0.34 0.34 0 0 Z " fill="#9157DF" transform="translate(201,48)"/>
<path d="M0 0 C0.33 0 0.66 0 1 0 C1 2.97 1 5.94 1 9 C-0.65 9 -2.3 9 -4 9 C-4.33 7.68 -4.66 6.36 -5 5 C-4.34 5 -3.68 5 -3 5 C-2.67 4.01 -2.34 3.02 -2 2 C-1.34 2 -0.68 2 0 2 C0 1.34 0 0.68 0 0 Z " fill="#F5D9D2" transform="translate(159,183)"/>
<path d="M0 0 C1.98 0 3.96 0 6 0 C5.67 1.98 5.34 3.96 5 6 C4.34 6 3.68 6 3 6 C3 5.34 3 4.68 3 4 C2.34 4 1.68 4 1 4 C1.33 5.65 1.66 7.3 2 9 C1.34 9 0.68 9 0 9 C0 6.03 0 3.06 0 0 Z " fill="#7C13DC" transform="translate(168,160)"/>
<path d="M0 0 C3.78611227 0.54087318 5.55400767 2.11722332 8 5 C8 5.66 8 6.32 8 7 C8.639375 7.28875 9.27875 7.5775 9.9375 7.875 C12 9 12 9 13 11 C11.68 10.67 10.36 10.34 9 10 C9 9.34 9 8.68 9 8 C8.360625 7.731875 7.72125 7.46375 7.0625 7.1875 C5 6 5 6 4 3 C2.02 3.33 0.04 3.66 -2 4 C-1.34 2.68 -0.68 1.36 0 0 Z " fill="#B85CD2" transform="translate(76,136)"/>
<path d="M0 0 C-1.36983503 3.16115776 -1.9890638 3.9927092 -5 6 C-5.99 6 -6.98 6 -8 6 C-8 6.66 -8 7.32 -8 8 C-8.66 8 -9.32 8 -10 8 C-7.95662621 2.18424383 -6.49689233 -0.52677505 0 0 Z " fill="#42C4C6" transform="translate(76,136)"/>
<path d="M0 0 C1.65 0 3.3 0 5 0 C5.08131463 1.43655854 5.13933559 2.8744483 5.1875 4.3125 C5.22230469 5.11300781 5.25710937 5.91351563 5.29296875 6.73828125 C5 9 5 9 2 12 C1.34 8.04 0.68 4.08 0 0 Z " fill="#9745D3" transform="translate(152,96)"/>
<path d="M0 0 C1.65 0.33 3.3 0.66 5 1 C4.38722388 3.96175123 3.74627478 5.38058783 2 8 C0.68 7.67 -0.64 7.34 -2 7 C-1.34 4.69 -0.68 2.38 0 0 Z " fill="#369FED" transform="translate(198,40)"/>
<path d="M0 0 C0 0.33 0 0.66 0 1 C-5.28 2.32 -10.56 3.64 -16 5 C-16 3.68 -16 2.36 -16 1 C-10.63904667 -0.12862175 -5.44693314 -0.09688221 0 0 Z " fill="#BDE4F9" transform="translate(96,19)"/>
<path d="M0 0 C0 0.66 0 1.32 0 2 C-3.63423209 4.32590854 -6.77088331 4.16265833 -11 4 C-8.97717134 -2.06848598 -5.42392029 -1.02338119 0 0 Z " fill="#FDF5F0" transform="translate(102,81)"/>
<path d="M0 0 C0 0.66 0 1.32 0 2 C-1.32 2.33 -2.64 2.66 -4 3 C-2.68 3.66 -1.36 4.32 0 5 C-5.61 4.67 -11.22 4.34 -17 4 C-17 3.67 -17 3.34 -17 3 C-16.11248047 2.92652344 -16.11248047 2.92652344 -15.20703125 2.8515625 C-9.99573257 2.35848693 -5.04141395 0 0 0 Z " fill="#9A35C8" transform="translate(128,151)"/>
<path d="M0 0 C6.6 0.33 13.2 0.66 20 1 C20 1.33 20 1.66 20 2 C15.35646957 2.58965466 10.74282331 3.09804145 6.0625 3.25 C4.96615234 3.28867188 4.96615234 3.28867188 3.84765625 3.328125 C3.23792969 3.21984375 2.62820312 3.1115625 2 3 C1.34 2.01 0.68 1.02 0 0 Z " fill="#AE4ED6" transform="translate(100,152)"/>
<path d="M0 0 C0.33 0.99 0.66 1.98 1 3 C1.99 3.33 2.98 3.66 4 4 C4 4.66 4 5.32 4 6 C5.65 5.67 7.3 5.34 9 5 C9 5.66 9 6.32 9 7 C8.34 7 7.68 7 7 7 C7.33 7.99 7.66 8.98 8 10 C5.00779732 8.63629701 2.70973471 7.05091917 0.25 4.875 C-0.36359375 4.33617187 -0.9771875 3.79734375 -1.609375 3.2421875 C-2.06828125 2.83226562 -2.5271875 2.42234375 -3 2 C-2.01 1.34 -1.02 0.68 0 0 Z " fill="#CE65DA" transform="translate(71,186)"/>
<path d="M0 0 C0.928125 0.474375 1.85625 0.94875 2.8125 1.4375 C7.68839162 3.56443214 12.74533582 3.72443895 18 4 C18 4.33 18 4.66 18 5 C11.73 5 5.46 5 -1 5 C-0.67 3.35 -0.34 1.7 0 0 Z " fill="#FAE0CD" transform="translate(89,117)"/>
<path d="M0 0 C0.99 0.33 1.98 0.66 3 1 C3 7.27 3 13.54 3 20 C0.86835225 15.73670449 0.57166358 12.38798276 0.375 7.75 C0.33632813 7.00492187 0.29765625 6.25984375 0.2578125 5.4921875 C0.16394892 3.6618476 0.08090282 1.83095857 0 0 Z " fill="#5DE7CA" transform="translate(21,68)"/>
<path d="M0 0 C7.4736245 0.49007374 7.4736245 0.49007374 10 2.9375 C11 5 11 5 11 7 C9.02 6.34 7.04 5.68 5 5 C5 4.34 5 3.68 5 3 C4.360625 2.87625 3.72125 2.7525 3.0625 2.625 C2.381875 2.41875 1.70125 2.2125 1 2 C0.67 1.34 0.34 0.68 0 0 Z " fill="#C860D9" transform="translate(79,196)"/>
<path d="M0 0 C2.02518318 3.03777477 2.87137828 5.54774534 4 9 C4.95920786 11.35313062 5.97641979 13.67368134 7 16 C6.34 16 5.68 16 5 16 C4.67 15.01 4.34 14.02 4 13 C3.34 12.67 2.68 12.34 2 12 C1.67 12.66 1.34 13.32 1 14 C0.67 9.38 0.34 4.76 0 0 Z " fill="#40D1C5" transform="translate(71,120)"/>
<path d="M0 0 C0.80824219 0.28746094 1.61648437 0.57492188 2.44921875 0.87109375 C3.06410156 1.09925781 3.67898437 1.32742187 4.3125 1.5625 C3.9825 2.2225 3.6525 2.8825 3.3125 3.5625 C-0.3175 3.5625 -3.9475 3.5625 -7.6875 3.5625 C-7.6875 2.2425 -7.6875 0.9225 -7.6875 -0.4375 C-4.20878379 -1.59707207 -3.34530355 -1.21206651 0 0 Z " fill="#F5EEE6" transform="translate(111.6875,123.4375)"/>
<path d="M0 0 C0.33 0 0.66 0 1 0 C1.85330338 5.83475015 2.48351814 10.44860651 0 16 C-0.33 16 -0.66 16 -1 16 C-2.00158501 10.65821327 -1.92547745 6.36776919 -1 1 C-0.67 0.67 -0.34 0.34 0 0 Z " fill="#9231E1" transform="translate(158,96)"/>
<path d="M0 0 C1.32 0 2.64 0 4 0 C4 0.66 4 1.32 4 2 C5.98 1.67 7.96 1.34 10 1 C11.35439668 3.70879335 11.06501451 6.00933268 11 9 C9 6 9 6 9 4 C7.88625 3.896875 6.7725 3.79375 5.625 3.6875 C3.830625 3.3471875 3.830625 3.3471875 2 3 C1.34 2.01 0.68 1.02 0 0 Z " fill="#EDA235" transform="translate(107,121)"/>
<path d="M0 0 C0.66 0.33 1.32 0.66 2 1 C2 1.66 2 2.32 2 3 C1.34 3 0.68 3 0 3 C0.33 3.99 0.66 4.98 1 6 C-1.97 6 -4.94 6 -8 6 C-7.67 5.34 -7.34 4.68 -7 4 C-6.34 4 -5.68 4 -5 4 C-5 3.34 -5 2.68 -5 2 C-4.360625 1.855625 -3.72125 1.71125 -3.0625 1.5625 C-1.02454854 1.18992819 -1.02454854 1.18992819 0 0 Z " fill="#9A55E1" transform="translate(186,58)"/>
<path d="M0 0 C0 0.99 0 1.98 0 3 C-1.32 3 -2.64 3 -4 3 C-4 3.66 -4 4.32 -4 5 C-6.64 4.67 -9.28 4.34 -12 4 C-4.28571429 0 -4.28571429 0 0 0 Z " fill="#20BAF4" transform="translate(112,17)"/>
<path d="M0 0 C0.66 0 1.32 0 2 0 C2 0.66 2 1.32 2 2 C2.886875 2.2475 3.77375 2.495 4.6875 2.75 C8.10427135 4.03934768 10.2797748 5.59980129 13 8 C11.35 8.33 9.7 8.66 8 9 C7.938125 8.071875 7.938125 8.071875 7.875 7.125 C7.58625 6.42375 7.2975 5.7225 7 5 C5.01276732 4.29618843 3.01222047 3.6288189 1 3 C0.67 2.01 0.34 1.02 0 0 Z " fill="#F4DFD7" transform="translate(82,199)"/>
<path d="M0 0 C1.4540625 0.0309375 1.4540625 0.0309375 2.9375 0.0625 C1.64450306 2.94687779 0.27808637 4.93469421 -2.0625 7.0625 C-3.0525 6.7325 -4.0425 6.4025 -5.0625 6.0625 C-5.3925 5.0725 -5.7225 4.0825 -6.0625 3.0625 C-4.4125 3.0625 -2.7625 3.0625 -1.0625 3.0625 C-2.0525 2.4025 -3.0425 1.7425 -4.0625 1.0625 C-3.0625 0.0625 -3.0625 0.0625 0 0 Z " fill="#8422C8" transform="translate(158.0625,180.9375)"/>
<path d="M0 0 C1.32 0 2.64 0 4 0 C2.66666667 2.66666667 1.33333333 5.33333333 0 8 C-0.66 8 -1.32 8 -2 8 C-2.125 5.125 -2.125 5.125 -2 2 C-1.34 1.34 -0.68 0.68 0 0 Z " fill="#26E0BD" transform="translate(66,136)"/>
<path d="M0 0 C2.1991413 4.39828259 2.51855059 7.18550592 3 12 C1.68 12 0.36 12 -1 12 C-0.67 8.04 -0.34 4.08 0 0 Z " fill="#B9F4EA" transform="translate(25,100)"/>
<path d="M0 0 C2.00720923 0.28674418 4.0085944 0.61866701 6 1 C5.67 1.66 5.34 2.32 5 3 C3 3.66666667 1 4.33333333 -1 5 C-1.33 5.66 -1.66 6.32 -2 7 C-2.66 5.68 -3.32 4.36 -4 3 C-3.01 2.34 -2.02 1.68 -1 1 C-0.67 0.67 -0.34 0.34 0 0 Z " fill="#FBE8D9" transform="translate(90,84)"/>
<path d="M0 0 C1.98 0 3.96 0 6 0 C6 0.66 6 1.32 6 2 C6.66 2 7.32 2 8 2 C7.67 2.99 7.34 3.98 7 5 C4.69 5 2.38 5 0 5 C0 4.34 0 3.68 0 3 C0.99 2.67 1.98 2.34 3 2 C2.01 1.34 1.02 0.68 0 0 Z " fill="#0DD5CA" transform="translate(48,34)"/>
<path d="M0 0 C0.89203125 0.28746094 1.7840625 0.57492188 2.703125 0.87109375 C3.37859375 1.09925781 4.0540625 1.32742187 4.75 1.5625 C4.75 2.2225 4.75 2.8825 4.75 3.5625 C3.16532272 3.27822583 1.5822943 2.98475182 0 2.6875 C-1.32257813 2.44386719 -1.32257813 2.44386719 -2.671875 2.1953125 C-5.11947744 1.59453736 -7.05599857 0.78252883 -9.25 -0.4375 C-5.70332822 -1.68877906 -3.52746562 -1.16035053 0 0 Z " fill="#D7D9F8" transform="translate(195.25,36.4375)"/>
<path d="M0 0 C0.66 0 1.32 0 2 0 C2 0.66 2 1.32 2 2 C2.66 2.33 3.32 2.66 4 3 C2.35 5.31 0.7 7.62 -1 10 C-1.33 9.01 -1.66 8.02 -2 7 C-2.66 6.67 -3.32 6.34 -4 6 C-2.35 5.67 -0.7 5.34 1 5 C0.67 3.35 0.34 1.7 0 0 Z " fill="#8226C6" transform="translate(169,164)"/>
<path d="M0 0 C0 0.66 0 1.32 0 2 C-0.66 2 -1.32 2 -2 2 C-2.66 3.65 -3.32 5.3 -4 7 C-5.98 7 -7.96 7 -10 7 C-9.34 6.01 -8.68 5.02 -8 4 C-7.01 4 -6.02 4 -5 4 C-5 3.01 -5 2.02 -5 1 C-2 0 -2 0 0 0 Z " fill="#D74FEA" transform="translate(74,142)"/>
<path d="M0 0 C2.31 0 4.62 0 7 0 C7 1.98 7 3.96 7 6 C6.01 6.33 5.02 6.66 4 7 C4 5.35 4 3.7 4 2 C2.68 2 1.36 2 0 2 C0 1.34 0 0.68 0 0 Z " fill="#E8F4F7" transform="translate(108,126)"/>
<path d="M0 0 C0.103125 0.61875 0.20625 1.2375 0.3125 1.875 C0.87525373 4.36526484 0.87525373 4.36526484 4 6 C3.814375 6.61875 3.62875 7.2375 3.4375 7.875 C2.76313824 10.04160178 2.76313824 10.04160178 4 12 C3.01 12 2.02 12 1 12 C1 10.02 1 8.04 1 6 C-0.32 5.34 -1.64 4.68 -3 4 C-2.67 3.01 -2.34 2.02 -2 1 C-1.34 0.67 -0.68 0.34 0 0 Z " fill="#ED6B1D" transform="translate(91,88)"/>
<path d="M0 0 C2.99529289 0.99843096 4.15840327 1.51384442 6 4 C5.6875 6.1875 5.6875 6.1875 5 8 C4.01 7.34 3.02 6.68 2 6 C2 5.34 2 4.68 2 4 C0.68 3.67 -0.64 3.34 -2 3 C-2 2.34 -2 1.68 -2 1 C-1.34 0.67 -0.68 0.34 0 0 Z " fill="#F9EBD1" transform="translate(114,85)"/>
<path d="M0 0 C8.57142857 1.85714286 8.57142857 1.85714286 12 5 C11.071875 4.979375 10.14375 4.95875 9.1875 4.9375 C5.97713989 4.84230396 5.97713989 4.84230396 3 6 C3 5.01 3 4.02 3 3 C2.01 2.67 1.02 2.34 0 2 C0 1.34 0 0.68 0 0 Z " fill="#DBF3F2" transform="translate(122,73)"/>
<path d="M0 0 C3.73584906 1.47169811 3.73584906 1.47169811 5 4 C4.67 4.66 4.34 5.32 4 6 C2.68 6 1.36 6 0 6 C-0.66 4.35 -1.32 2.7 -2 1 C-1.34 0.67 -0.68 0.34 0 0 Z " fill="#DD54E9" transform="translate(63,175)"/>
<path d="M0 0 C0.33 0 0.66 0 1 0 C1.3125 3.25 1.3125 3.25 1 7 C-1.375 9.4375 -1.375 9.4375 -4 11 C-4.66 11 -5.32 11 -6 11 C-6 10.34 -6 9.68 -6 9 C-5.34 8.67 -4.68 8.34 -4 8 C-2.87775145 6.11986894 -2.87775145 6.11986894 -1.875 3.9375 C-1.34519531 2.83728516 -1.34519531 2.83728516 -0.8046875 1.71484375 C-0.53914062 1.14894531 -0.27359375 0.58304688 0 0 Z " fill="#8935C6" transform="translate(151,129)"/>
<path d="M0 0 C1.26977059 3.80931176 0.52074507 5.81618993 -0.4375 9.6875 C-0.86869141 11.45673828 -0.86869141 11.45673828 -1.30859375 13.26171875 C-1.65083984 14.61716797 -1.65083984 14.61716797 -2 16 C-2.33 16 -2.66 16 -3 16 C-3 12.37 -3 8.74 -3 5 C-2.34 5 -1.68 5 -1 5 C-0.67 3.35 -0.34 1.7 0 0 Z " fill="#6B1AC6" transform="translate(195,106)"/>
<path d="M0 0 C2.97 0 5.94 0 9 0 C9 0.66 9 1.32 9 2 C6.5 3.625 6.5 3.625 4 5 C2 3.625 2 3.625 0 2 C0 1.34 0 0.68 0 0 Z " fill="#F76D0A" transform="translate(87,112)"/>
<path d="M0 0 C0.99 0 1.98 0 3 0 C2.67 1.65 2.34 3.3 2 5 C2.99 5.33 3.98 5.66 5 6 C5 7.65 5 9.3 5 11 C1.94259517 8.24833565 0.15249839 5.98135808 -1 2 C-0.67 1.34 -0.34 0.68 0 0 Z " fill="#9C58D0" transform="translate(147,85)"/>
<path d="M0 0 C2.125 0.375 2.125 0.375 4 1 C3.34 2.65 2.68 4.3 2 6 C1.34 6 0.68 6 0 6 C0 6.66 0 7.32 0 8 C-0.66 8 -1.32 8 -2 8 C-2.125 5.125 -2.125 5.125 -2 2 C-1.34 1.34 -0.68 0.68 0 0 Z " fill="#22ADF2" transform="translate(154,72)"/>
<path d="M0 0 C0.33 0.66 0.66 1.32 1 2 C-1.125 4.0625 -1.125 4.0625 -4 6 C-7.3125 5.75 -7.3125 5.75 -10 5 C-9 3 -9 3 -6.93359375 2.1484375 C-5.69802734 1.76558594 -5.69802734 1.76558594 -4.4375 1.375 C-3.61121094 1.11460937 -2.78492187 0.85421875 -1.93359375 0.5859375 C-1.29550781 0.39257812 -0.65742188 0.19921875 0 0 Z " fill="#EFD8CE" transform="translate(130,206)"/>
<path d="M0 0 C1.65 0.33 3.3 0.66 5 1 C5 2.32 5 3.64 5 5 C2.03 4.505 2.03 4.505 -1 4 C-0.67 2.68 -0.34 1.36 0 0 Z " fill="#EBF0D1" transform="translate(65,187)"/>
<path d="M0 0 C0.33 0.99 0.66 1.98 1 3 C2.32 3 3.64 3 5 3 C4.67 4.65 4.34 6.3 4 8 C4.66 8 5.32 8 6 8 C6 9.65 6 11.3 6 13 C0 5.28571429 0 5.28571429 0 0 Z " fill="#69E5BE" transform="translate(38,141)"/>
<path d="M0 0 C0.33 0 0.66 0 1 0 C1.02693575 2.12493141 1.04636628 4.24995912 1.0625 6.375 C1.07410156 7.55835937 1.08570313 8.74171875 1.09765625 9.9609375 C1 13 1 13 0 15 C-0.66 15 -1.32 15 -2 15 C-1.03644647 4.44191344 -1.03644647 4.44191344 0 0 Z " fill="#E3BFE3" transform="translate(199,91)"/>
<path d="M0 0 C2.64 0.33 5.28 0.66 8 1 C7.67 1.66 7.34 2.32 7 3 C5.35 2.67 3.7 2.34 2 2 C2.33 2.99 2.66 3.98 3 5 C1.68 4.67 0.36 4.34 -1 4 C-0.67 2.68 -0.34 1.36 0 0 Z " fill="#FA5B04" transform="translate(92,88)"/>
<path d="M0 0 C0.33 0.66 0.66 1.32 1 2 C3.02463255 2.65213292 3.02463255 2.65213292 5 3 C4.01 3 3.02 3 2 3 C1.67 4.98 1.34 6.96 1 9 C-0.32 7.68 -1.64 6.36 -3 5 C-2.34 5 -1.68 5 -1 5 C-0.67 3.35 -0.34 1.7 0 0 Z " fill="#4BE1BA" transform="translate(47,150)"/>
<path d="M0 0 C0.66 1.32 1.32 2.64 2 4 C2.66 4 3.32 4 4 4 C3.34 5.98 2.68 7.96 2 10 C1.34 10 0.68 10 0 10 C0 6.7 0 3.4 0 0 Z " fill="#7A25CD" transform="translate(184,132)"/>
<path d="M0 0 C0.66 0 1.32 0 2 0 C2.33 1.98 2.66 3.96 3 6 C2.34 6 1.68 6 1 6 C0.67 7.32 0.34 8.64 0 10 C-2 9 -2 9 -4 6 C-2.68 5.67 -1.36 5.34 0 5 C0 3.35 0 1.7 0 0 Z " fill="#EB8330" transform="translate(100,94)"/>
<path d="M0 0 C3.8665284 3.222107 4.88059018 6.14922412 6 11 C3.5625 9.4375 3.5625 9.4375 1 7 C0.1875 3.25 0.1875 3.25 0 0 Z " fill="#ECDEF7" transform="translate(148,92)"/>
<path d="M0 0 C3.12290635 0.48578543 5.99580359 0.9986012 9 2 C9.6875 4.0625 9.6875 4.0625 10 6 C6.00499382 4.6302836 3.19990508 2.74277578 0 0 Z " fill="#49B8DB" transform="translate(130,75)"/>
<path d="M0 0 C1.485 0.99 1.485 0.99 3 2 C3.40843923 4.71203652 3.13336867 7.2437142 3 10 C2.34 10 1.68 10 1 10 C1 7.69 1 5.38 1 3 C0.34 3 -0.32 3 -1 3 C-0.67 2.01 -0.34 1.02 0 0 Z " fill="#C2F5FB" transform="translate(17,45)"/>
<path d="M0 0 C0.33 0.99 0.66 1.98 1 3 C-2.22791555 5.1519437 -3.28400809 5.20086443 -7 5 C-6.01 4.67 -5.02 4.34 -4 4 C-4.33 3.01 -4.66 2.02 -5 1 C-3 0 -3 0 0 0 Z " fill="#EDE3FC" transform="translate(171,24)"/>
<path d="M0 0 C2.475 0.495 2.475 0.495 5 1 C5 2.65 5 4.3 5 6 C3.35 5.67 1.7 5.34 0 5 C0 3.35 0 1.7 0 0 Z " fill="#E35BED" transform="translate(51,159)"/>
<path d="M0 0 C1.32 0.33 2.64 0.66 4 1 C2.77065985 4.68802044 1.06140622 5.72356973 -2 8 C-2.66 7.67 -3.32 7.34 -4 7 C-3.525625 6.5875 -3.05125 6.175 -2.5625 5.75 C-0.83733482 3.817815 -0.43415125 2.51807725 0 0 Z " fill="#60BDCB" transform="translate(60,144)"/>
<path d="M0 0 C0.33 0 0.66 0 1 0 C1.33 3.3 1.66 6.6 2 10 C1.01 10 0.02 10 -1 10 C-2.46726798 6.18510326 -1.43336419 3.70988378 0 0 Z " fill="#E4FCF8" transform="translate(126,107)"/>
<path d="M0 0 C2.0625 0.4375 2.0625 0.4375 4 1 C3.67 1.99 3.34 2.98 3 4 C2.34 4 1.68 4 1 4 C0.67 4.99 0.34 5.98 0 7 C-0.33 7 -0.66 7 -1 7 C-1.04254356 5.00045254 -1.04080783 2.99958364 -1 1 C-0.67 0.67 -0.34 0.34 0 0 Z " fill="#7F27C9" transform="translate(163,173)"/>
<path d="M0 0 C1.875 0.25 1.875 0.25 4 1 C5.25 3.0625 5.25 3.0625 6 5 C4.02 5 2.04 5 0 5 C0 3.35 0 1.7 0 0 Z " fill="#CA3CE9" transform="translate(81,143)"/>
<path d="M0 0 C2.56616632 3.84924948 2.55097676 6.4349304 3 11 C2.34 10.01 1.68 9.02 1 8 C0.34 8 -0.32 8 -1 8 C-0.67 5.36 -0.34 2.72 0 0 Z " fill="#AEF1DF" transform="translate(28,112)"/>
<path d="M0 0 C0.66 0 1.32 0 2 0 C2 1.98 2 3.96 2 6 C2.66 6 3.32 6 4 6 C3.67 7.98 3.34 9.96 3 12 C0.60926555 8.17482487 0.44033448 4.40334476 0 0 Z " fill="#56E0BE" transform="translate(25,96)"/>
<path d="M0 0 C0.99 0 1.98 0 3 0 C2.67 2.64 2.34 5.28 2 8 C0.4375 6.8125 0.4375 6.8125 -1 5 C-0.6875 2.3125 -0.6875 2.3125 0 0 Z " fill="#7D32D1" transform="translate(197,88)"/>
<path d="M0 0 C0.66 0 1.32 0 2 0 C2 2 2 2 -0.25 4.625 C-3 7 -3 7 -7 7 C-7 6.34 -7 5.68 -7 5 C-5.03277992 3.61876037 -3.03131672 2.28511874 -1 1 C-0.67 0.67 -0.34 0.34 0 0 Z " fill="#736FE7" transform="translate(179,60)"/>
<path d="M0 0 C0.598125 0.20625 1.19625 0.4125 1.8125 0.625 C1.8125 1.615 1.8125 2.605 1.8125 3.625 C0.4925 3.955 -0.8275 4.285 -2.1875 4.625 C-2.1875 3.965 -2.1875 3.305 -2.1875 2.625 C-3.1775 2.295 -4.1675 1.965 -5.1875 1.625 C-2.1875 -0.375 -2.1875 -0.375 0 0 Z " fill="#23A7F1" transform="translate(170.1875,63.375)"/>
<path d="M0 0 C1.32 0 2.64 0 4 0 C4 0.66 4 1.32 4 2 C-0.43076923 4.09230769 -0.43076923 4.09230769 -3.3125 3.625 C-3.869375 3.41875 -4.42625 3.2125 -5 3 C-5 2.34 -5 1.68 -5 1 C-3.68 1 -2.36 1 -1 1 C-0.67 0.67 -0.34 0.34 0 0 Z " fill="#9C34C5" transform="translate(126,205)"/>
<path d="M0 0 C1.65 0 3.3 0 5 0 C5 0.66 5 1.32 5 2 C6.32 2.33 7.64 2.66 9 3 C9 3.66 9 4.32 9 5 C5.22454612 3.90931332 2.52956528 3.0916909 0 0 Z " fill="#BE4FD1" transform="translate(90,203)"/>
<path d="M0 0 C0.99 0 1.98 0 3 0 C3.33 1.98 3.66 3.96 4 6 C2.68 5.67 1.36 5.34 0 5 C0 3.35 0 1.7 0 0 Z " fill="#FAE8D0" transform="translate(148,194)"/>
<path d="M0 0 C1.25541557 3.76624671 0.37061958 5.37188934 -1 9 C-3 6 -3 6 -2.75 3.375 C-2.5025 2.59125 -2.255 1.8075 -2 1 C-1.34 0.67 -0.68 0.34 0 0 Z " fill="#FC5C00" transform="translate(87,98)"/>
<path d="M0 0 C-2.66666667 1.33333333 -5.33333333 2.66666667 -8 4 C-8.66 3.67 -9.32 3.34 -10 3 C-10.33 3.66 -10.66 4.32 -11 5 C-11 4.01 -11 3.02 -11 2 C-9.54494642 1.47007308 -8.08581873 0.9513211 -6.625 0.4375 C-5.81289063 0.14746094 -5.00078125 -0.14257812 -4.1640625 -0.44140625 C-2 -1 -2 -1 0 0 Z " fill="#4FDCC7" transform="translate(32,39)"/>
<path d="M0 0 C4.6875 0.78125 4.6875 0.78125 9.375 1.5625 C10.674375 1.7790625 10.674375 1.7790625 12 2 C12 2.33 12 2.66 12 3 C8.37 3 4.74 3 1 3 C0.67 2.01 0.34 1.02 0 0 Z " fill="#32A9E2" transform="translate(186,37)"/>
<path d="M0 0 C0.99 0.33 1.98 0.66 3 1 C1.625 3 1.625 3 0 5 C-0.66 5 -1.32 5 -2 5 C-2.33 5.66 -2.66 6.32 -3 7 C-2.25 2.25 -2.25 2.25 0 0 Z " fill="#8A24CC" transform="translate(150,188)"/>
<path d="M0 0 C0.33 0 0.66 0 1 0 C1.06058594 0.61488281 1.12117188 1.22976562 1.18359375 1.86328125 C1.26738281 2.67152344 1.35117188 3.47976562 1.4375 4.3125 C1.51871094 5.11300781 1.59992188 5.91351563 1.68359375 6.73828125 C1.95265693 9.16087179 1.95265693 9.16087179 3 12 C2.01 12.33 1.02 12.66 0 13 C0 8.71 0 4.42 0 0 Z " fill="#F5DBC0" transform="translate(83,100)"/>
<path d="M0 0 C0.33 0.99 0.66 1.98 1 3 C1.99 2.67 2.98 2.34 4 2 C4 3.65 4 5.3 4 7 C3.01 7.495 3.01 7.495 2 8 C-0.1519437 4.77208445 -0.20086443 3.71599191 0 0 Z " fill="#F56312" transform="translate(84,104)"/>
<path d="M0 0 C0.99 0 1.98 0 3 0 C2.67 1.65 2.34 3.3 2 5 C0.35 4.67 -1.3 4.34 -3 4 C-1.6875 2 -1.6875 2 0 0 Z " fill="#EED1C8" transform="translate(163,179)"/>
<path d="M0 0 C0.99 0 1.98 0 3 0 C2.67 2.64 2.34 5.28 2 8 C-0.1519437 4.77208445 -0.20086443 3.71599191 0 0 Z " fill="#43E1B6" transform="translate(24,88)"/>
<path d="M0 0 C1.32 0 2.64 0 4 0 C4 0.66 4 1.32 4 2 C2 3.625 2 3.625 0 5 C-0.99 4.34 -1.98 3.68 -3 3 C-2.01 2.67 -1.02 2.34 0 2 C0 1.34 0 0.68 0 0 Z " fill="#776DE5" transform="translate(184,56)"/>
</svg>
