<?xml version="1.0" encoding="UTF-8"?>
<svg version="1.1" xmlns="http://www.w3.org/2000/svg" width="327" height="154">
<path d="M0 0 C107.91 0 215.82 0 327 0 C327 50.82 327 101.64 327 154 C219.09 154 111.18 154 0 154 C0 103.18 0 52.36 0 0 Z " fill="#FEFEFE" transform="translate(0,0)"/>
<path d="M0 0 C0.79623779 -0.01409912 1.59247559 -0.02819824 2.4128418 -0.04272461 C7.26721157 -0.00286439 11.01782843 0.77980802 15.48461914 2.66552734 C17.47917542 3.51304196 17.47917542 3.51304196 20.421875 3.875 C30.34873468 5.59207843 39.67872494 13.09534015 46.3125 20.375 C47.58203125 22.64453125 47.58203125 22.64453125 48.3125 24.375 C48.9725 24.375 49.6325 24.375 50.3125 24.375 C51.87683243 22.75113619 51.87683243 22.75113619 53.5 20.6875 C56.77186178 16.81762987 60.08004047 14.13905521 64.3125 11.375 C65.58560312 12.30941535 66.855888 13.24767111 68.125 14.1875 C69.18654297 14.97060547 69.18654297 14.97060547 70.26953125 15.76953125 C73.35777974 18.19643398 75.05094687 19.59034062 76.3125 23.375 C75.82536902 18.95989226 74.46196803 17.07053355 71.25 14.0625 C70.51652344 13.36511719 69.78304687 12.66773438 69.02734375 11.94921875 C68.46144531 11.42972656 67.89554688 10.91023438 67.3125 10.375 C72.30315649 4.53269565 82.84930737 1.24509306 90.3125 0.375 C108.48592701 -0.53658065 124.17533831 2.42473324 139.16796875 13.3125 C141.49659275 15.55205095 142.36216943 17.31695301 143.3125 20.375 C144.3025 20.375 145.2925 20.375 146.3125 20.375 C156.30326402 28.33793568 161.74358949 43.10897236 163.3125 55.375 C164.09220212 67.59871714 162.37429578 77.92812099 158.3125 89.375 C151.8775 89.87 151.8775 89.87 145.3125 90.375 C148.9425 90.705 152.5725 91.035 156.3125 91.375 C150.94287203 104.79906992 139.2887846 115.35886805 126.3125 121.375 C122.02997586 122.93747822 117.724922 124.23512432 113.3125 125.375 C112.68827148 125.55297119 112.06404297 125.73094238 111.42089844 125.91430664 C109.13673074 126.41340628 107.10211548 126.48844335 104.765625 126.47265625 C103.92128906 126.46943359 103.07695312 126.46621094 102.20703125 126.46289062 C101.33433594 126.45451172 100.46164063 126.44613281 99.5625 126.4375 C98.67433594 126.43298828 97.78617188 126.42847656 96.87109375 126.42382812 C94.68482671 126.412074 92.49869821 126.39564249 90.3125 126.375 C90.3125 125.055 90.3125 123.735 90.3125 122.375 C89.6525 122.375 88.9925 122.375 88.3125 122.375 C88.3125 123.365 88.3125 124.355 88.3125 125.375 C72.95164063 122.61512929 60.81081743 114.8065012 50.3125 103.375 C49.81621094 103.81070313 49.31992188 104.24640625 48.80859375 104.6953125 C47.38682911 105.94171717 45.96355558 107.18640202 44.5390625 108.4296875 C43.15504433 109.63888232 41.77422332 110.85175934 40.3984375 112.0703125 C37.19007042 114.88293386 34.08662877 117.33493039 30.3125 119.375 C29.73757812 119.68824219 29.16265625 120.00148438 28.5703125 120.32421875 C25.73742945 121.64263664 22.8640816 122.52868097 19.875 123.4375 C18.76253906 123.77910156 17.65007812 124.12070313 16.50390625 124.47265625 C1.26414522 128.78157277 -15.75576739 126.97850173 -29.6875 119.375 C-35.19219453 116.15200512 -40.29397912 113.04503618 -44.6875 108.375 C-44.1925 106.89 -44.1925 106.89 -43.6875 105.375 C-43.0275 105.375 -42.3675 105.375 -41.6875 105.375 C-41.6875 104.715 -41.6875 104.055 -41.6875 103.375 C-44.6575 104.365 -44.6575 104.365 -47.6875 105.375 C-58.06926585 92.85797735 -63.25859395 79.03382725 -63.0625 62.8125 C-63.07410156 61.84892578 -63.08570313 60.88535156 -63.09765625 59.89257812 C-63.06240233 51.17898499 -61.10131671 43.57815928 -57.125 35.8125 C-56.71121094 34.98621094 -56.29742187 34.15992188 -55.87109375 33.30859375 C-54.6875 31.375 -54.6875 31.375 -52.6875 30.375 C-52.0275 32.025 -51.3675 33.675 -50.6875 35.375 C-49.6975 34.88 -49.6975 34.88 -48.6875 34.375 C-49.22375 33.4675 -49.76 32.56 -50.3125 31.625 C-51.6875 28.375 -51.6875 28.375 -50.96875 26.4140625 C-42.78615358 13.39175965 -27.6749643 4.35441853 -12.875 0.80859375 C-8.57779148 0.224047 -4.33373539 0.056239 0 0 Z " fill="#FEFDFD" transform="translate(113.6875,13.625)"/>
<path d="M0 0 C2.328624 2.23955095 3.19420068 4.00445301 4.14453125 7.0625 C5.13453125 7.0625 6.12453125 7.0625 7.14453125 7.0625 C17.13529527 15.02543568 22.57562074 29.79647236 24.14453125 42.0625 C24.92423337 54.28621714 23.20632703 64.61562099 19.14453125 76.0625 C14.85453125 76.3925 10.56453125 76.7225 6.14453125 77.0625 C11.58953125 77.5575 11.58953125 77.5575 17.14453125 78.0625 C11.77490328 91.48656992 0.12081585 102.04636805 -12.85546875 108.0625 C-17.13799289 109.62497822 -21.44304675 110.92262432 -25.85546875 112.0625 C-26.47969727 112.24047119 -27.10392578 112.41844238 -27.74707031 112.60180664 C-30.03123801 113.10090628 -32.06585327 113.17594335 -34.40234375 113.16015625 C-35.24667969 113.15693359 -36.09101563 113.15371094 -36.9609375 113.15039062 C-38.26998047 113.13782227 -38.26998047 113.13782227 -39.60546875 113.125 C-40.49363281 113.12048828 -41.38179687 113.11597656 -42.296875 113.11132812 C-44.48314204 113.099574 -46.66927054 113.08314249 -48.85546875 113.0625 C-48.85546875 111.7425 -48.85546875 110.4225 -48.85546875 109.0625 C-49.51546875 109.0625 -50.17546875 109.0625 -50.85546875 109.0625 C-50.85546875 110.0525 -50.85546875 111.0425 -50.85546875 112.0625 C-64.83568707 109.55068772 -79.02786366 102.51006275 -87.85546875 91.0625 C-88.734375 89.11328125 -88.734375 89.11328125 -88.85546875 87.0625 C-87.78125 84.8359375 -87.78125 84.8359375 -86.16796875 82.4375 C-79.29182232 71.50905382 -77.17959023 60.81619551 -76.54296875 48 C-75.96751252 40.37772892 -73.51088536 32.53147766 -68.10546875 26.9375 C-65.29973196 23.35239188 -65.22543789 20.87935207 -65.09375 16.4296875 C-64.85546875 14.0625 -64.85546875 14.0625 -63.7734375 12.0703125 C-62.5025745 9.29063768 -62.85726474 7.92401817 -63.85546875 5.0625 C-65.67201003 2.76484936 -65.67201003 2.76484936 -67.91796875 0.75 C-68.65144531 0.05261719 -69.38492188 -0.64476562 -70.140625 -1.36328125 C-70.70652344 -1.88277344 -71.27242187 -2.40226562 -71.85546875 -2.9375 C-55.0498732 -22.61094463 -17.22718796 -12.5105201 0 0 Z " fill="#FDFDFD" transform="translate(252.85546875,26.9375)"/>
<path d="M0 0 C1.27310312 0.93441535 2.543388 1.87267111 3.8125 2.8125 C4.52019531 3.33457031 5.22789062 3.85664063 5.95703125 4.39453125 C6.96830078 5.18923828 6.96830078 5.18923828 8 6 C8.58007812 6.391875 9.16015625 6.78375 9.7578125 7.1875 C11.85290173 10.24448555 11.29712488 13.6393198 11.0625 17.1875 C10.99059448 18.34487671 10.99059448 18.34487671 10.91723633 19.52563477 C10.43119942 24.95026681 9.266487 28.14911863 5.55859375 32.23046875 C-0.41467862 39.01215392 -0.50791894 47.90589433 -1.22070312 56.46166992 C-2.99230784 76.40524949 -12.27726352 90.78876878 -27.2734375 103.625 C-31.51136364 107 -31.51136364 107 -35 107 C-34.96777344 106.0821875 -34.93554688 105.164375 -34.90234375 104.21875 C-34.85376608 96.76785417 -34.85376608 96.76785417 -38.0703125 90.2890625 C-40.30101697 88.3520558 -42.52476791 86.61015097 -45 85 C-43.86774283 81.60322849 -42.98607076 80.97769885 -40.25 78.8125 C-32.95606096 72.56241627 -29.60865148 65.43202128 -28 56 C-27.81938667 53.3501059 -27.67085874 50.7147838 -27.5625 48.0625 C-26.8026987 30.92676954 -18.5120865 15.58383279 -6 4 C-4.04262404 2.57745798 -2.05091785 1.28889322 0 0 Z " fill="#FBB040" transform="translate(178,25)"/>
<path d="M0 0 C2.91301758 2.93525436 2.92118614 5.26740528 3.19921875 9.23828125 C2.91946347 12.02057468 2.49774536 13.63500499 1.046875 16.0625 C-3.1477566 19.44934871 -8.11635334 21.74514334 -12.953125 24.0625 C-13.63117188 23.59199219 -14.30921875 23.12148438 -15.0078125 22.63671875 C-25.52862089 15.59856023 -34.80836791 12.45428993 -47.390625 14.75 C-52.62856853 16.01784146 -57.24903868 18.48949245 -61.953125 21.0625 C-61.92089844 20.08410156 -61.88867188 19.10570312 -61.85546875 18.09765625 C-61.79837966 10.12552421 -61.79837966 10.12552421 -65.0234375 3.0625 C-67.24193493 0.89268433 -69.46633062 -1.08370783 -71.953125 -2.9375 C-55.09016837 -22.67809428 -17.31915594 -12.41373027 0 0 Z " fill="#AD68A9" transform="translate(252.953125,26.9375)"/>
<path d="M0 0 C2.42352035 2.85629184 4.0431969 5.10893131 5.4375 8.625 C6.98128785 11.54104371 7.95103376 11.98266413 11.14453125 13.11328125 C14.42149096 13.86240205 17.67710935 14.49580416 21 15 C20.7834375 15.53625 20.566875 16.0725 20.34375 16.625 C16.66343899 26.98439396 16.15143349 38.79025692 20.83203125 48.88671875 C22.00557648 51.09633796 22.00557648 51.09633796 23.671875 53.3984375 C25.82497569 57.6159818 24.78312905 60.69568236 23.5546875 65.109375 C20.68931962 70.43694343 15.51147144 72.12831909 10 74 C8.6734576 74.35940804 7.34247276 74.70562646 6 75 C-4.38176585 62.48297735 -9.57109395 48.65882725 -9.375 32.4375 C-9.38660156 31.47392578 -9.39820313 30.51035156 -9.41015625 29.51757812 C-9.3748232 20.78442514 -7.43093644 13.18856872 -3.375 5.4375 C-2.94960938 4.61121094 -2.52421875 3.78492188 -2.0859375 2.93359375 C-1 1 -1 1 0 0 Z " fill="#8DC53F" transform="translate(60,44)"/>
<path d="M0 0 C0.68964844 0.47050781 1.37929687 0.94101563 2.08984375 1.42578125 C11.96348341 7.96757543 19.97421892 11.34133712 32 10 C33.88591145 9.34302265 35.76165636 8.65599268 37.625 7.9375 C41.14613634 6.88167164 42.48894246 6.78185732 45.91015625 8.2421875 C49.52194746 10.93452132 52.4554296 13.42657661 53.42529297 18.00976562 C53.85147561 22.71584223 53.51748434 27.3138918 53 32 C50.93847611 32.64894237 48.87573742 33.2940264 46.8125 33.9375 C45.66394531 34.29714844 44.51539063 34.65679687 43.33203125 35.02734375 C28.09878231 39.4740952 10.94386142 37.61012126 -3 30 C-8.50469453 26.77700512 -13.60647912 23.67003618 -18 19 C-17.505 17.515 -17.505 17.515 -17 16 C-14.56640625 14.83203125 -14.56640625 14.83203125 -11.5625 13.8125 C-10.57378906 13.46832031 -9.58507812 13.12414062 -8.56640625 12.76953125 C-6 12 -6 12 -4 12 C-3.79503906 11.21753906 -3.59007813 10.43507813 -3.37890625 9.62890625 C-3.10949219 8.61699219 -2.84007813 7.60507813 -2.5625 6.5625 C-2.29566406 5.55316406 -2.02882813 4.54382813 -1.75390625 3.50390625 C-1 1 -1 1 0 0 Z " fill="#F8AD40" transform="translate(87,103)"/>
<path d="M0 0 C3.25516428 3.16474305 6.32008793 6.32752791 9 10 C9 10.66 9 11.32 9 12 C13.62 12 18.24 12 23 12 C17.63037203 25.42406992 5.9762846 35.98386805 -7 42 C-11.28252414 43.56247822 -15.587578 44.86012432 -20 46 C-20.62422852 46.17797119 -21.24845703 46.35594238 -21.89160156 46.53930664 C-24.17576926 47.03840628 -26.21038452 47.11344335 -28.546875 47.09765625 C-29.39121094 47.09443359 -30.23554688 47.09121094 -31.10546875 47.08789062 C-32.41451172 47.07532227 -32.41451172 47.07532227 -33.75 47.0625 C-34.63816406 47.05798828 -35.52632812 47.05347656 -36.44140625 47.04882812 C-38.62767329 47.037074 -40.81380179 47.02064249 -43 47 C-46.02035456 32.70256074 -46.02035456 32.70256074 -43.84375 26.9375 C-40.91706237 23.1675295 -38.43963167 21.34078238 -33.765625 20.234375 C-31.38347584 19.9485171 -28.99593658 19.70497045 -26.60546875 19.5 C-17.47931455 18.23440115 -9.70724641 13.10623717 -4 6 C-2.55707476 4.04020601 -1.26887225 2.08095049 0 0 Z " fill="#1993D1" transform="translate(247,93)"/>
<path d="M0 0 C-5 5 -5 5 -7.125 6.6875 C-9.69603655 9.85844508 -9.66847995 12.8296266 -9.75 16.75 C-9.79447266 17.79607422 -9.79447266 17.79607422 -9.83984375 18.86328125 C-9.91018458 20.57490813 -9.95739946 22.28745815 -10 24 C-10.65484375 24.02578125 -11.3096875 24.0515625 -11.984375 24.078125 C-23.70381208 24.8064516 -33.3616793 27.83253116 -42 36 C-42.7425 37.03125 -43.485 38.0625 -44.25 39.125 C-47.77055835 41.52538069 -49.21032262 41.16490778 -53.375 40.5625 C-59.01206066 39.02337081 -61.38065831 37.02151157 -64.4375 32.0625 C-67.24375732 26.80809244 -67.24375732 26.80809244 -66.35546875 23.86328125 C-57.13473805 11.18809812 -43.52233349 2.13562392 -28.1953125 -1.5703125 C-19.05154543 -2.79991443 -8.66788274 -3.50344375 0 0 Z " fill="#8DC640" transform="translate(129,16)"/>
<path d="M0 0 C10.69682148 7.56604446 16.00117777 20.45845236 18.62109375 32.96484375 C20.25066596 46.01822118 18.43132206 57.76955111 14 70 C9.11052123 70.82430694 4.86150146 71.08869537 0 70 C-4.469286 66.73969463 -7.58146586 61.89620114 -10 57 C-9.61474609 55.04638672 -9.61474609 55.04638672 -9 53 C-7.96951632 37.01140027 -7.96951632 37.01140027 -14.69921875 22.9296875 C-15.12847656 22.29289062 -15.55773437 21.65609375 -16 21 C-15.505 19.515 -15.505 19.515 -15 18 C-13.06817068 17.12635181 -11.10369094 16.32408248 -9.125 15.5625 C-5.22546776 13.74240954 -3.4145344 12.86786213 -1.5390625 8.94140625 C-0.82756883 5.95101948 -0.2968914 3.05798146 0 0 Z " fill="#AD68A9" transform="translate(258,33)"/>
<path d="M0 0 C9.31981803 3.97393256 20.8632699 10.20015276 25 20 C24.61328125 20.54527344 24.2265625 21.09054688 23.828125 21.65234375 C18.25736462 29.71891509 14.73689941 37.33278352 13 47 C12.34 47 11.68 47 11 47 C10.72027344 46.35933594 10.44054687 45.71867187 10.15234375 45.05859375 C5.63030798 35.30204713 -0.16917711 29.44133623 -10 25 C-11.99178182 24.30916745 -13.99041337 23.63718601 -16 23 C-17.50918379 10.27255001 -17.50918379 10.27255001 -13.984375 4.96484375 C-9.24057762 0.48380162 -6.58857587 -1.95466701 0 0 Z " fill="#1A93D1" transform="translate(137,18)"/>
<path d="M0 0 C2 3 2 3 3.2265625 5.234375 C8.61267676 14.92336267 14.79411812 19.95217843 25 24 C26.33973829 24.65369989 27.67512644 25.31667557 29 26 C28.47148437 26.4640625 27.94296875 26.928125 27.3984375 27.40625 C23.38096924 31.55589666 23.38096924 31.55589666 21.86474609 36.99658203 C22.11851176 41.74103638 23.0040823 46.36186902 24 51 C9.29068737 48.35719206 -2.97417345 41.06000924 -13 30 C-12.48050781 29.175 -11.96101562 28.35 -11.42578125 27.5 C-6.03615137 18.66814489 -2.6932227 9.97010326 0 0 Z " fill="#1993D2" transform="translate(178,88)"/>
<path d="M0 0 C1.23556641 0.01740234 1.23556641 0.01740234 2.49609375 0.03515625 C3.32238281 0.04417969 4.14867187 0.05320312 5 0.0625 C5.63808594 0.07410156 6.27617187 0.08570312 6.93359375 0.09765625 C6.93359375 2.73765625 6.93359375 5.37765625 6.93359375 8.09765625 C8.25359375 7.76765625 9.57359375 7.43765625 10.93359375 7.09765625 C10.93359375 4.78765625 10.93359375 2.47765625 10.93359375 0.09765625 C11.59359375 0.09765625 12.25359375 0.09765625 12.93359375 0.09765625 C13.55859375 3.47265625 13.55859375 3.47265625 13.93359375 7.09765625 C11.93359375 9.09765625 11.93359375 9.09765625 8.96484375 9.36328125 C7.79953125 9.358125 6.63421875 9.35296875 5.43359375 9.34765625 C4.26828125 9.3528125 3.10296875 9.35796875 1.90234375 9.36328125 C-1.06640625 9.09765625 -1.06640625 9.09765625 -3.06640625 7.09765625 C-3.25390625 4.03515625 -3.25390625 4.03515625 -3.06640625 1.09765625 C-2.06640625 0.09765625 -2.06640625 0.09765625 0 0 Z " fill="#A0A2A6" transform="translate(208.06640625,72.90234375)"/>
<path d="M0 0 C1.37478516 0.01740234 1.37478516 0.01740234 2.77734375 0.03515625 C3.69644531 0.04417969 4.61554688 0.05320312 5.5625 0.0625 C6.27277344 0.07410156 6.98304687 0.08570312 7.71484375 0.09765625 C7.71484375 3.06765625 7.71484375 6.03765625 7.71484375 9.09765625 C6.39484375 9.09765625 5.07484375 9.09765625 3.71484375 9.09765625 C2.41546875 9.15953125 2.41546875 9.15953125 1.08984375 9.22265625 C-1.28515625 9.09765625 -1.28515625 9.09765625 -3.28515625 7.09765625 C-3.47265625 4.03515625 -3.47265625 4.03515625 -3.28515625 1.09765625 C-2.28515625 0.09765625 -2.28515625 0.09765625 0 0 Z " fill="#B8BAC0" transform="translate(111.28515625,72.90234375)"/>
<path d="M0 0 C0.99 0.33 1.98 0.66 3 1 C1.49952749 10.66971171 -2.56500149 21.36745728 -10 28 C-10 22.57848289 -7.52183212 18.84623214 -5.01953125 14.1953125 C-2.57116007 9.51224616 -1.10213511 5.17423431 0 0 Z " fill="#EDEFEE" transform="translate(175,89)"/>
<path d="M0 0 C0.33 1.65 0.66 3.3 1 5 C0.278125 5.103125 -0.44375 5.20625 -1.1875 5.3125 C-4.05823062 5.86711079 -4.05823062 5.86711079 -6.5 7.5 C-9.06565201 9.03939121 -11.06168772 9.5802411 -14 10 C-14.33 8.68 -14.66 7.36 -15 6 C-14.01 6.33 -13.02 6.66 -12 7 C-11.67 6.01 -11.34 5.02 -11 4 C-9.35 3.67 -7.7 3.34 -6 3 C-6 2.34 -6 1.68 -6 1 C-3 0 -3 0 0 0 Z " fill="#1D658D" transform="translate(234,119)"/>
<path d="M0 0 C1.625 2 1.625 2 3 4 C2.48050781 4.25394531 1.96101563 4.50789063 1.42578125 4.76953125 C-1.75829318 6.34096909 -4.82347253 7.88623785 -7.8125 9.8125 C-8.534375 10.204375 -9.25625 10.59625 -10 11 C-10.99 10.67 -11.98 10.34 -13 10 C-12.9375 8.25 -12.9375 8.25 -12 6 C-10.29393899 4.92581344 -8.58148177 3.85259274 -6.7890625 2.9296875 C-1.1512605 0 -1.1512605 0 0 0 Z " fill="#567C40" transform="translate(97,27)"/>
<path d="M0 0 C0.33 0.66 0.66 1.32 1 2 C1.99 2 2.98 2 4 2 C4 3.98 4 5.96 4 8 C3.34 8 2.68 8 2 8 C2.185625 8.7425 2.37125 9.485 2.5625 10.25 C2.99203108 12.94990963 2.85122974 14.44631077 2 17 C0.35 17 -1.3 17 -3 17 C-2.67 14.03 -2.34 11.06 -2 8 C-1.01 7.67 -0.02 7.34 1 7 C0.34 6.67 -0.32 6.34 -1 6 C-0.67 5.34 -0.34 4.68 0 4 C0 3.67 0 3.34 0 3 C0 2.01 0 1.02 0 0 Z " fill="#A27841" transform="translate(163,68)"/>
<path d="M0 0 C0.66 0.66 1.32 1.32 2 2 C1.33484375 2.68449219 0.6696875 3.36898437 -0.015625 4.07421875 C-2.50270008 7.74118574 -2.27553572 9.47683028 -1.75 13.8125 C-1.62109375 14.97394531 -1.4921875 16.13539063 -1.359375 17.33203125 C-1.24078125 18.21246094 -1.1221875 19.09289062 -1 20 C-1.99 19.67 -2.98 19.34 -4 19 C-6.82869955 8.62242152 -6.82869955 8.62242152 -4.796875 4.64453125 C-3.28690541 2.93346758 -1.77871388 1.4269908 0 0 Z " fill="#EAF2F9" transform="translate(205,116)"/>
<path d="M0 0 C0.66 0 1.32 0 2 0 C2.37372868 5.10762523 1.68541912 8.6056778 -1 13 C-4.33909541 15.08540574 -8.00112333 17 -12 17 C-12 16.01 -12 15.02 -12 14 C-11.38511719 13.82726562 -10.77023438 13.65453125 -10.13671875 13.4765625 C-4.95974233 11.70785331 -4.95974233 11.70785331 -1.734375 7.5078125 C-1.01285447 5.01078558 -0.42556978 2.56320187 0 0 Z " fill="#F7F5E7" transform="translate(84,102)"/>
<path d="M0 0 C0.99 0 1.98 0 3 0 C3.19335938 0.62390625 3.38671875 1.2478125 3.5859375 1.890625 C4.89813187 4.30713529 4.89813187 4.30713529 8.0390625 5.046875 C9.22242187 5.27890625 10.40578125 5.5109375 11.625 5.75 C12.81351563 5.99234375 14.00203125 6.2346875 15.2265625 6.484375 C16.59941406 6.73960938 16.59941406 6.73960938 18 7 C17.67 8.32 17.34 9.64 17 11 C5.28030761 9.06929923 5.28030761 9.06929923 2.24609375 6.53515625 C0.82272964 4.38697943 0 2.59796931 0 0 Z " fill="#EEF6E4" transform="translate(64,49)"/>
<path d="M0 0 C0.66 0 1.32 0 2 0 C1.38516675 2.733765 0.57072617 5.14174118 -0.62890625 7.671875 C-0.94150391 8.33574219 -1.25410156 8.99960937 -1.57617188 9.68359375 C-1.90166016 10.36550781 -2.22714844 11.04742187 -2.5625 11.75 C-2.89185547 12.44738281 -3.22121094 13.14476562 -3.56054688 13.86328125 C-4.37047712 15.5770467 -5.18480638 17.28873194 -6 19 C-6.99 19 -7.98 19 -9 19 C-7.09763742 12.09142011 -4.32091271 5.76522894 0 0 Z " fill="#F0F0EE" transform="translate(160,39)"/>
<path d="M0 0 C1.32 0 2.64 0 4 0 C4.33 1.32 4.66 2.64 5 4 C1.6659053 6.19097652 -1.04179141 7.43454163 -5 8 C-5.33 7.01 -5.66 6.02 -6 5 C-6.66 4.67 -7.32 4.34 -8 4 C-5.09399739 2.74335022 -3.20395416 2 0 2 C0 1.34 0 0.68 0 0 Z " fill="#1D5373" transform="translate(242,114)"/>
<path d="M0 0 C5.875 3.875 5.875 3.875 7 5 C7.23653523 7.52596259 7.42173692 10.03107207 7.5625 12.5625 C7.60568359 13.27341797 7.64886719 13.98433594 7.69335938 14.71679688 C7.79971777 16.47761912 7.90038846 18.2387832 8 20 C6.68 20.33 5.36 20.66 4 21 C3.96261719 19.95199219 3.92523438 18.90398437 3.88671875 17.82421875 C3.82105485 16.44527695 3.75460765 15.06637229 3.6875 13.6875 C3.66494141 12.99720703 3.64238281 12.30691406 3.61914062 11.59570312 C3.46401213 7.56650445 3.46401213 7.56650445 1.45703125 4.20703125 C0.97621094 3.80871094 0.49539062 3.41039063 0 3 C0 2.01 0 1.02 0 0 Z " fill="#FEE9CE" transform="translate(136,113)"/>
<path d="M0 0 C0.99 0 1.98 0 3 0 C2.73596487 3.82850938 2.30296375 7.37776077 1 11 C-1.45206595 13.07674974 -3.93110951 14.10788067 -7 15 C-7.33 14.01 -7.66 13.02 -8 12 C-7.05125 11.690625 -6.1025 11.38125 -5.125 11.0625 C-1.60238644 8.73757505 -1.46162802 8.22496633 -0.625 4.3125 C-0.39177118 2.87882872 -0.17532514 1.4418981 0 0 Z " fill="#F0E6F0" transform="translate(255,34)"/>
<path d="M0 0 C1.65 0 3.3 0 5 0 C6.35439668 2.70879335 6.06501451 5.00933268 6 8 C4.35 8.33 2.7 8.66 1 9 C0.67 6.03 0.34 3.06 0 0 Z " fill="#D0D3D5" transform="translate(214,72)"/>
<path d="M0 0 C2.31 0.33 4.62 0.66 7 1 C7.33 2.32 7.66 3.64 8 5 C8.33 4.01 8.66 3.02 9 2 C9.66 2 10.32 2 11 2 C11 2.99 11 3.98 11 5 C6.6835078 5.76173392 3.25566547 6.16063604 -1 5 C-0.67 3.35 -0.34 1.7 0 0 Z " fill="#443A57" transform="translate(208,27)"/>
<path d="M0 0 C2.475 0.495 2.475 0.495 5 1 C5 3.97 5 6.94 5 10 C3.68 9.67 2.36 9.34 1 9 C0.67 7.35 0.34 5.7 0 4 C0.66 4 1.32 4 2 4 C2 3.01 2 2.02 2 1 C1.34 0.67 0.68 0.34 0 0 Z " fill="#544163" transform="translate(260,64)"/>
<path d="M0 0 C1.32 0.66 2.64 1.32 4 2 C4 4.31 4 6.62 4 9 C2.68 8.67 1.36 8.34 0 8 C0.33 7.34 0.66 6.68 1 6 C0.01 5.34 -0.98 4.68 -2 4 C-1.34 2.68 -0.68 1.36 0 0 Z " fill="#537740" transform="translate(62,74)"/>
<path d="M0 0 C2.8842454 0.34485543 3.8207818 0.78255407 5.703125 3.06640625 C6.21359375 3.89011719 6.7240625 4.71382813 7.25 5.5625 C8.03117187 6.80193359 8.03117187 6.80193359 8.828125 8.06640625 C9.21484375 8.70449219 9.6015625 9.34257813 10 10 C9.01 10.33 8.02 10.66 7 11 C5.82750647 9.54634731 4.66216184 8.08692581 3.5 6.625 C2.52546875 5.40683594 2.52546875 5.40683594 1.53125 4.1640625 C0 2 0 2 0 0 Z " fill="#E7EBF5" transform="translate(249,94)"/>
<path d="M0 0 C0.99 0 1.98 0 3 0 C4.1577506 3.47325181 4.06866652 6.36067448 4 10 C2.35 10 0.7 10 -1 10 C-1 9.01 -1 8.02 -1 7 C-0.01 7 0.98 7 2 7 C2 6.34 2 5.68 2 5 C1.01 4.67 0.02 4.34 -1 4 C-0.67 2.68 -0.34 1.36 0 0 Z " fill="#594367" transform="translate(262,76)"/>
<path d="M0 0 C1.4540625 0.0309375 1.4540625 0.0309375 2.9375 0.0625 C2.298125 0.289375 1.65875 0.51625 1 0.75 C-1.33443661 1.91500896 -1.33443661 1.91500896 -1.8125 4.6875 C-1.895 5.47125 -1.9775 6.255 -2.0625 7.0625 C-0.0825 7.0625 1.8975 7.0625 3.9375 7.0625 C3.6075 7.7225 3.2775 8.3825 2.9375 9.0625 C0.5625 9.1875 0.5625 9.1875 -2.0625 9.0625 C-4.0625 7.0625 -4.0625 7.0625 -4.25 4 C-3.9998913 0.08163043 -3.9998913 0.08163043 0 0 Z " fill="#343841" transform="translate(112.0625,72.9375)"/>
<path d="M0 0 C2.475 0.495 2.475 0.495 5 1 C5 2.98 5 4.96 5 7 C3.35 7.33 1.7 7.66 0 8 C0 6.35 0 4.7 0 3 C0.99 3 1.98 3 3 3 C3 2.34 3 1.68 3 1 C2.01 0.67 1.02 0.34 0 0 Z " fill="#48683F" transform="translate(62,84)"/>
<path d="M0 0 C0.33 0.66 0.66 1.32 1 2 C1.99 2 2.98 2 4 2 C4 3.98 4 5.96 4 8 C3.34 8 2.68 8 2 8 C1.67 8.99 1.34 9.98 1 11 C0.34 10.67 -0.32 10.34 -1 10 C-1 9.34 -1 8.68 -1 8 C-0.34 7.67 0.32 7.34 1 7 C0.34 6.67 -0.32 6.34 -1 6 C-0.67 5.34 -0.34 4.68 0 4 C0 3.67 0 3.34 0 3 C0 2.01 0 1.02 0 0 Z " fill="#685540" transform="translate(163,68)"/>
<path d="M0 0 C2.64 0.33 5.28 0.66 8 1 C7.34 2.32 6.68 3.64 6 5 C3.37886292 5 1.49064888 4.68707555 -1 4 C-0.67 2.68 -0.34 1.36 0 0 Z " fill="#64486F" transform="translate(223,29)"/>
<path d="M0 0 C0 0.66 0 1.32 0 2 C0.66 2.33 1.32 2.66 2 3 C-1 5 -1 5 -3.1875 4.625 C-3.785625 4.41875 -4.38375 4.2125 -5 4 C-5 3.01 -5 2.02 -5 1 C-5.99 0.67 -6.98 0.34 -8 0 C-4.71023192 -1.09658936 -3.28696233 -0.79953138 0 0 Z " fill="#1C5373" transform="translate(147,39)"/>
<path d="M0 0 C-1.51671964 4.55015893 -5.16891053 6.50057264 -9 9 C-7.67183131 4.6532661 -5.0855272 0 0 0 Z " fill="#ECF3F1" transform="translate(130,17)"/>
<path d="M0 0 C1.4540625 0.0309375 1.4540625 0.0309375 2.9375 0.0625 C2.6075 0.7225 2.2775 1.3825 1.9375 2.0625 C-0.125 2.6875 -0.125 2.6875 -2.0625 3.0625 C-1.7325 4.3825 -1.4025 5.7025 -1.0625 7.0625 C0.2575 7.3925 1.5775 7.7225 2.9375 8.0625 C0.5625 8.6875 0.5625 8.6875 -2.0625 9.0625 C-4.0625 7.0625 -4.0625 7.0625 -4.25 4 C-3.9998913 0.08163043 -3.9998913 0.08163043 0 0 Z " fill="#212733" transform="translate(209.0625,72.9375)"/>
<path d="M0 0 C1.32 0 2.64 0 4 0 C5.04449911 3.13349732 4.93423645 3.98968256 4 7 C2.35 6.67 0.7 6.34 -1 6 C-0.67 4.02 -0.34 2.04 0 0 Z " fill="#695540" transform="translate(159,86)"/>
<path d="M0 0 C0.33 2.97 0.66 5.94 1 9 C0.01 8.67 -0.98 8.34 -2 8 C-2.33 5.69 -2.66 3.38 -3 1 C-1 0 -1 0 0 0 Z " fill="#D4E5F4" transform="translate(203,127)"/>
<path d="M0 0 C0.99 0 1.98 0 3 0 C3.33 1.65 3.66 3.3 4 5 C1.03 4.505 1.03 4.505 -2 4 C-2 3.34 -2 2.68 -2 2 C-1.34 2 -0.68 2 0 2 C0 1.34 0 0.68 0 0 Z " fill="#1C5272" transform="translate(231,119)"/>
<path d="M0 0 C1.4540625 0.0309375 1.4540625 0.0309375 2.9375 0.0625 C2.9375 1.0525 2.9375 2.0425 2.9375 3.0625 C2.2775 2.7325 1.6175 2.4025 0.9375 2.0625 C-0.0525 3.5475 -0.0525 3.5475 -1.0625 5.0625 C-1.3925 4.0725 -1.7225 3.0825 -2.0625 2.0625 C-2.7225 1.7325 -3.3825 1.4025 -4.0625 1.0625 C-3.0625 0.0625 -3.0625 0.0625 0 0 Z " fill="#1B6A94" transform="translate(238.0625,116.9375)"/>
<path d="M0 0 C1.32 0.66 2.64 1.32 4 2 C3.67 3.32 3.34 4.64 3 6 C2.34 6 1.68 6 1 6 C1 5.34 1 4.68 1 4 C0.01 4 -0.98 4 -2 4 C-1.34 2.68 -0.68 1.36 0 0 Z " fill="#1C5372" transform="translate(136,33)"/>
<path d="M0 0 C0.99 0 1.98 0 3 0 C2.1875 2.4375 2.1875 2.4375 1 5 C0.01 5.33 -0.98 5.66 -2 6 C-2.33 4.68 -2.66 3.36 -3 2 C-2.01 2.33 -1.02 2.66 0 3 C0 2.01 0 1.02 0 0 Z " fill="#1C4965" transform="translate(222,123)"/>
<path d="M0 0 C-0.33 1.32 -0.66 2.64 -1 4 C-3.64 3.34 -6.28 2.68 -9 2 C-5.86501708 0.14223235 -3.62528568 -0.20140476 0 0 Z " fill="#E3F0D2" transform="translate(82,56)"/>
<path d="M0 0 C1.65 0.33 3.3 0.66 5 1 C4.01 1.495 4.01 1.495 3 2 C3 2.99 3 3.98 3 5 C1.68 4.67 0.36 4.34 -1 4 C-0.67 2.68 -0.34 1.36 0 0 Z " fill="#694A74" transform="translate(208,27)"/>
</svg>
