<?xml version="1.0" encoding="UTF-8"?>
<svg version="1.1" xmlns="http://www.w3.org/2000/svg" width="212" height="238">
<path d="M0 0 C69.96 0 139.92 0 212 0 C212 78.54 212 157.08 212 238 C142.04 238 72.08 238 0 238 C0 159.46 0 80.92 0 0 Z " fill="#A179DB" transform="translate(0,0)"/>
<path d="M0 0 C2.32244807 3.67142402 2.24667927 6.80458697 2.24050903 11.08673096 C2.24221788 11.80068677 2.24392673 12.51464258 2.24568737 13.25023341 C2.24898156 15.64251032 2.23797985 18.03450674 2.22705078 20.42675781 C2.22648665 22.14161167 2.22680326 23.85646601 2.22793579 25.57131958 C2.22851024 30.22800123 2.21674105 34.8845801 2.20278788 39.54123783 C2.19029584 44.40726769 2.18911122 49.27329984 2.18673706 54.13934326 C2.1805178 63.3544675 2.16410094 72.56954435 2.14403808 81.7846477 C2.12169296 92.2754653 2.11068914 102.76628514 2.10064721 113.25712061 C2.07973512 134.83810687 2.04455046 156.41905045 2 178 C-12.26520612 178.14063639 -26.53030355 178.24579782 -40.79606247 178.31087303 C-47.42109053 178.34211442 -54.0456511 178.38445738 -60.67041016 178.45263672 C-67.07007661 178.51808334 -73.4692949 178.55376008 -79.86927032 178.56926346 C-82.30441589 178.58030426 -84.73953839 178.60186421 -87.17449188 178.63438034 C-111.14837262 178.94163849 -111.14837262 178.94163849 -121 172 C-122.80559844 170.95928738 -124.61745876 169.92930552 -126.4375 168.9140625 C-128.2936697 167.82110298 -130.14776087 166.72460752 -132 165.625 C-134.1034897 164.38686999 -136.20768605 163.14993994 -138.3125 161.9140625 C-139.40304688 161.2737207 -140.49359375 160.63337891 -141.6171875 159.97363281 C-146.80144799 156.94898199 -152.01526047 153.97676735 -157.23114014 151.00714111 C-166.96965499 145.46229333 -176.68942954 139.88697812 -186.375 134.25 C-187.36113281 133.67765625 -188.34726563 133.1053125 -189.36328125 132.515625 C-202.49017203 124.85673781 -202.49017203 124.85673781 -207 120 C-205.69818245 116.09454735 -204.31324644 115.77042038 -200.75 113.8203125 C-199.66589844 113.22089844 -198.58179688 112.62148437 -197.46484375 112.00390625 C-195.74974609 111.07384766 -195.74974609 111.07384766 -194 110.125 C-192.88753906 109.51269531 -191.77507812 108.90039062 -190.62890625 108.26953125 C-188.44479387 107.06814081 -186.25864095 105.87045144 -184.0703125 104.67675781 C-180.03474932 102.47285769 -176.01561981 100.23997914 -172 98 C-171.46632812 98.75023437 -170.93265625 99.50046875 -170.3828125 100.2734375 C-156.80391317 118.9268044 -139.140069 132.94901396 -115.80078125 136.75390625 C-92.43724139 138.80676958 -71.63308687 133.91115118 -53 119 C-46.2598171 113.14837361 -40.52258965 106.72847598 -36 99 C-40.73554887 95.28225345 -45.98736283 92.41983726 -51.19042969 89.41992188 C-52.99735368 88.37652809 -54.79950593 87.32521003 -56.6015625 86.2734375 C-57.74367187 85.6134375 -58.88578125 84.9534375 -60.0625 84.2734375 C-61.10535156 83.66935059 -62.14820313 83.06526367 -63.22265625 82.44287109 C-65.55400664 81.23170014 -67.43639296 80.46492274 -70 80 C-70.4125 80.50789063 -70.825 81.01578125 -71.25 81.5390625 C-79.55476646 91.43804753 -87.99985598 96.89713405 -101.15234375 98.34765625 C-113.24022114 98.70546987 -122.57260462 94.90905705 -131.421875 86.7734375 C-139.8166353 78.13177248 -143.43820093 67.80920245 -143.27734375 55.81640625 C-142.07070544 43.56307918 -135.70545585 34.57463164 -126.52734375 26.83203125 C-117.08313315 19.98607333 -107.30089336 18.76989258 -96 20 C-84.58732291 22.50658797 -77.18859171 29.14904645 -70 38 C-66.21481268 36.5839494 -62.80250679 34.84578935 -59.30078125 32.83203125 C-58.18614502 32.19305908 -57.07150879 31.55408691 -55.9230957 30.89575195 C-54.71952475 30.20140232 -53.5159938 29.50698335 -52.3125 28.8125 C-51.06810878 28.09762824 -49.82355897 27.38303248 -48.57885742 26.66870117 C-44.71650059 24.45054037 -40.85786757 22.22595719 -37 20 C-36.38237793 19.64373535 -35.76475586 19.2874707 -35.12841797 18.92041016 C-33.31469811 17.87416294 -31.50107536 16.82774766 -29.6875 15.78125 C-28.81281319 15.27654427 -28.81281319 15.27654427 -27.92045593 14.76164246 C-25.15143903 13.1635633 -22.38329122 11.5640107 -19.61645508 9.9621582 C-16.74738378 8.30267204 -13.87496603 6.64924931 -11 5 C-10.12134277 4.49388184 -9.24268555 3.98776367 -8.33740234 3.46630859 C-7.52867676 3.00691895 -6.71995117 2.5475293 -5.88671875 2.07421875 C-5.18119873 1.67162842 -4.47567871 1.26903809 -3.7487793 0.85424805 C-2 0 -2 0 0 0 Z " fill="#390291" transform="translate(210,60)"/>
<path d="M0 0 C6.2829724 5.56043057 12.86692272 11.65230705 17 19 C16.94018555 20.98046875 16.94018555 20.98046875 16 23 C13.68676758 24.67578125 13.68676758 24.67578125 10.64453125 26.3125 C9.54689453 26.91320312 8.44925781 27.51390625 7.31835938 28.1328125 C6.16142578 28.74898437 5.00449219 29.36515625 3.8125 30 C1.54704043 31.22707045 -0.71731782 32.45617679 -2.98046875 33.6875 C-3.99004639 34.22761719 -4.99962402 34.76773438 -6.03979492 35.32421875 C-9.10577678 36.99261329 -9.10577678 36.99261329 -12.1887207 39.26953125 C-13.11644287 39.84058594 -14.04416504 40.41164062 -15 41 C-18.38334551 39.87221816 -18.97700939 39.03640113 -21.125 36.3125 C-27.93959933 28.32395709 -36.2538056 23.64046149 -46.703125 22.6484375 C-58.37588655 22.05867661 -67.32912071 24.59037618 -76.4375 32.25 C-80.72092601 36.39613672 -83.65997945 40.53043977 -86 46 C-86.47566406 47.09634766 -86.47566406 47.09634766 -86.9609375 48.21484375 C-90.9791097 58.70264184 -89.07743656 68.74644629 -85 79 C-83.00633042 82.39022526 -80.74146833 85.18898067 -78 88 C-77.44183594 88.57363281 -76.88367188 89.14726562 -76.30859375 89.73828125 C-68.37349987 97.15787019 -58.949285 99.39506597 -48.328125 99.27734375 C-36.32750247 98.27729187 -27.82707451 93.44994855 -20 84.625 C-18.99191739 83.42340153 -17.98882716 82.21749344 -17 81 C-12.58865318 82.3317662 -8.82071553 84.07155988 -4.83203125 86.37109375 C-3.69185547 87.02787109 -2.55167969 87.68464844 -1.37695312 88.36132812 C-0.79179932 88.70236572 -0.20664551 89.04340332 0.39624023 89.39477539 C2.18882637 90.4382721 3.98749912 91.47062765 5.78710938 92.50195312 C15.38560489 98.06069613 15.38560489 98.06069613 18 101 C5.09690111 120.11433273 -11.34919918 133.56026963 -34.125 138.8125 C-55.43924784 142.600732 -76.2539715 138.92836571 -94.5 126.9375 C-112.6245252 114.11711953 -124.53039885 95.86542219 -129 74 C-129.41948859 69.71939396 -129.47806166 65.48640216 -129.4375 61.1875 C-129.42847656 60.04039551 -129.41945312 58.89329102 -129.41015625 57.71142578 C-129.04472239 39.82293081 -122.14397366 22.32568538 -110 9 C-109.28457031 8.19304687 -108.56914063 7.38609375 -107.83203125 6.5546875 C-79.43360237 -23.7431469 -31.98384977 -26.31764617 0 0 Z " fill="#FDFDFE" transform="translate(157,58)"/>
<path d="M0 0 C2.67260454 2.57984604 4.98407574 5.200636 7.1875 8.1875 C19.57853819 24.15991421 37.00642526 35.46197185 57.19921875 38.75390625 C80.56275861 40.80676958 101.36691313 35.91115118 120 21 C126.7401829 15.14837361 132.47741035 8.72847598 137 1 C140.62922743 1.68592721 143.44190705 3.21602125 146.6484375 5.01953125 C147.73640625 5.62990234 148.824375 6.24027344 149.9453125 6.86914062 C151.07710937 7.51044922 152.20890625 8.15175781 153.375 8.8125 C154.4990625 9.44220703 155.623125 10.07191406 156.78125 10.72070312 C161.98760846 13.65312606 167.05828268 16.64390703 172 20 C168.4162771 28.25713605 158.3789763 32.24866226 150.918396 36.43191528 C149.07443221 37.46585414 147.23429579 38.50633142 145.39501953 39.54858398 C143.48124596 40.63300039 141.56728384 41.71706309 139.65219116 42.79914856 C133.37103331 46.34873963 127.12093788 49.95133567 120.875 53.5625 C119.82401123 54.16868164 118.77302246 54.77486328 117.69018555 55.39941406 C112.68702338 58.2858979 107.68799817 61.17916465 102.69885254 64.08979797 C100.92459192 65.12439485 99.14923954 66.15709236 97.37353516 67.18920898 C95.15094477 68.48179832 92.93042017 69.77794915 90.71240234 71.07836914 C72.30341676 81.76921054 72.30341676 81.76921054 64 80 C55.99364423 76.58662293 48.47246197 72.06113101 41 67.625 C38.8965103 66.38686999 36.79231395 65.14993994 34.6875 63.9140625 C33.59695312 63.2737207 32.50640625 62.63337891 31.3828125 61.97363281 C26.19855201 58.94898199 20.98473953 55.97676735 15.76885986 53.00714111 C6.03034501 47.46229333 -3.68942954 41.88697812 -13.375 36.25 C-14.85419922 35.39148438 -14.85419922 35.39148438 -16.36328125 34.515625 C-29.49017203 26.85673781 -29.49017203 26.85673781 -34 22 C-32.69484497 18.0845349 -31.29270907 17.76584765 -27.71484375 15.8203125 C-26.62623047 15.22089844 -25.53761719 14.62148437 -24.41601562 14.00390625 C-23.26810547 13.38386719 -22.12019531 12.76382813 -20.9375 12.125 C-18.69560953 10.90027548 -16.45470225 9.67374928 -14.21484375 8.4453125 C-13.14991699 7.86168945 -12.08499023 7.27806641 -10.98779297 6.67675781 C-7.23879536 4.57280981 -3.61411562 2.32683576 0 0 Z " fill="#270168" transform="translate(37,158)"/>
<path d="M0 0 C0.33 0 0.66 0 1 0 C1 21.45 1 42.9 1 65 C-32.66 65 -66.32 65 -101 65 C-98.011891 63.00792734 -94.99895138 61.40623461 -91.8125 59.75 C-83.98837793 55.62683035 -76.36911319 51.17503026 -68.7434082 46.69824219 C-61.44763527 42.41847609 -54.1215367 38.19545418 -46.77160645 34.00970459 C-45.00533676 33.00304162 -43.24024353 31.99434925 -41.47558594 30.98486328 C-40.89557831 30.65308075 -40.31557068 30.32129822 -39.71798706 29.97946167 C-38.55140649 29.31211025 -37.38484149 28.6447316 -36.21829224 27.97732544 C-33.31789611 26.31941189 -30.41441216 24.66734157 -27.50439453 23.02636719 C-24.18459474 21.15264408 -20.87305144 19.26500174 -17.5625 17.375 C-16.56798828 16.81941406 -15.57347656 16.26382813 -14.54882812 15.69140625 C-7.57826152 11.68734912 -2.57258436 7.95162439 0 0 Z " fill="#FEFDFE" transform="translate(211,173)"/>
<path d="M0 0 C2 3 2 3 3.25 5.375 C7.90072723 12.35109085 15.64801568 15.77901458 22.8125 19.6875 C25.08410798 20.94260942 27.35494109 22.19912227 29.625 23.45703125 C30.72585937 24.06627441 31.82671875 24.67551758 32.9609375 25.30322266 C36.78046457 27.43575103 40.55452528 29.63626791 44.3125 31.875 C52.47207349 36.72819385 60.72224621 41.41960855 68.97357178 46.11425781 C77.12918794 50.75643029 85.22948915 55.46826625 93.21484375 60.3984375 C95.76379443 61.86417351 98.2419138 62.99428901 101 64 C101 64.33 101 64.66 101 65 C67.67 65 34.34 65 0 65 C0 43.55 0 22.1 0 0 Z " fill="#FEFDFE" transform="translate(0,173)"/>
<path d="M0 0 C33.66 0 67.32 0 102 0 C102 21.12 102 42.24 102 64 C100 62 100 62 98.75 59.6875 C94.44865973 53.0818703 87.35420187 49.75915822 80.625 46.0625 C78.54735197 44.90512579 76.47055452 43.74622359 74.39453125 42.5859375 C73.33186035 41.99264648 72.26918945 41.39935547 71.17431641 40.78808594 C66.18668809 37.97856511 61.24932885 35.08507818 56.3125 32.1875 C46.12354439 26.21550853 35.8820826 20.34003224 25.61450195 14.50463867 C19.71591809 11.14670603 13.85808338 7.74523843 8.08007812 4.18310547 C5.49102848 2.71050751 2.8765113 1.75697666 0 1 C0 0.67 0 0.34 0 0 Z " fill="#FEFEFE" transform="translate(110,0)"/>
<path d="M0 0 C33.33 0 66.66 0 101 0 C98.216718 1.85552133 95.40259582 3.51415939 92.49609375 5.16796875 C90.81676758 6.12509766 90.81676758 6.12509766 89.10351562 7.1015625 C88.50708252 7.4409082 87.91064941 7.78025391 87.29614258 8.12988281 C84.11134273 9.94211885 80.92867704 11.75809365 77.74609375 13.57421875 C77.094664 13.94590179 76.44323425 14.31758484 75.77206421 14.70053101 C68.44335228 18.88457584 61.13689274 23.10700394 53.83203125 27.33251953 C48.05478375 30.67116973 42.26740117 33.99076473 36.46484375 37.28515625 C35.19595524 38.00649582 33.92707498 38.72784988 32.65820312 39.44921875 C30.24880006 40.81877417 27.83703106 42.1840291 25.42382812 43.546875 C12.86691765 50.16080119 12.86691765 50.16080119 3 60 C2.01 61.32 1.02 62.64 0 64 C0 42.88 0 21.76 0 0 Z " fill="#FEFEFE" transform="translate(0,0)"/>
<path d="M0 0 C5.94924359 3.56532683 10.94356548 8.37169711 15 14 C15 14.66 15 15.32 15 16 C14.33170166 16.3717334 13.66340332 16.7434668 12.97485352 17.12646484 C0.36615511 24.14632009 -12.19663143 31.21982911 -24.60644531 38.58544922 C-29.70469302 41.59842833 -34.82244272 44.57818223 -39.9375 47.5625 C-41.5309021 48.49352539 -41.5309021 48.49352539 -43.15649414 49.44335938 C-44.14512451 50.02021484 -45.13375488 50.59707031 -46.15234375 51.19140625 C-47.03913818 51.70904541 -47.92593262 52.22668457 -48.83959961 52.76000977 C-50.20561504 53.5440523 -51.59124996 54.29562498 -53 55 C-53.65043719 53.27255984 -54.29514844 51.5429631 -54.9375 49.8125 C-55.29714844 48.84957031 -55.65679687 47.88664062 -56.02734375 46.89453125 C-59.53865116 36.44521884 -58.45254259 27.01475312 -54 17 C-48.75008227 7.77674028 -40.26944021 0.57069179 -30.375 -3.15234375 C-20.12652575 -5.72632397 -9.40778381 -4.94984704 0 0 Z " fill="#A079DB" transform="translate(125,84)"/>
<path d="M0 0 C3.19405339 1.45555654 6.20775093 3.03936244 9.2409668 4.80664062 C10.38114258 5.46792969 11.52131836 6.12921875 12.69604492 6.81054688 C13.88421787 7.5071241 15.07236869 8.20373906 16.26049805 8.90039062 C17.46008615 9.59749018 18.65995362 10.2941092 19.86010742 10.99023438 C28.49925014 16.01789202 28.49925014 16.01789202 32.07299805 18.40039062 C29.48217624 25.86195743 23.98270949 30.67125102 17.07299805 34.27539062 C6.56238702 39.0195418 -4.46132892 40.26592722 -15.5559082 36.43164062 C-23.78570673 32.85228838 -29.31568103 27.28075688 -34.92700195 20.40039062 C-33.59501322 16.40442442 -31.94885933 15.98025625 -28.31762695 13.93164062 C-27.47189117 13.44926941 -27.47189117 13.44926941 -26.60906982 12.95715332 C-24.80312622 11.92958531 -22.99035719 10.91481137 -21.17700195 9.90039062 C-19.97079071 9.21764787 -18.76505556 8.53406325 -17.55981445 7.84960938 C-15.33127608 6.58447076 -13.09972552 5.32541557 -10.86547852 4.0703125 C-7.93010468 2.47745946 -7.93010468 2.47745946 -5.41821289 0.55859375 C-2.92700195 -0.59960938 -2.92700195 -0.59960938 0 0 Z " fill="#270168" transform="translate(107.927001953125,119.599609375)"/>
<path d="M0 0 C1.98 0 3.96 0 6 0 C6 3.63 6 7.26 6 11 C9.3 11 12.6 11 16 11 C16 7.37 16 3.74 16 0 C17.98 0 19.96 0 22 0 C22 3.63 22 7.26 22 11 C25.96 11 29.92 11 34 11 C34 12.98 34 14.96 34 17 C30.04 17 26.08 17 22 17 C22 20.63 22 24.26 22 28 C25.63 28 29.26 28 33 28 C33 29.98 33 31.96 33 34 C29.37 34 25.74 34 22 34 C22 37.63 22 41.26 22 45 C20.02 45 18.04 45 16 45 C16 41.37 16 37.74 16 34 C12.7 34 9.4 34 6 34 C6 37.63 6 41.26 6 45 C4.02 45 2.04 45 0 45 C0 41.37 0 37.74 0 34 C-3.63 34 -7.26 34 -11 34 C-11 32.02 -11 30.04 -11 28 C-7.37 28 -3.74 28 0 28 C0 24.37 0 20.74 0 17 C-3.96 17 -7.92 17 -12 17 C-12 15.02 -12 13.04 -12 11 C-8.04 11 -4.08 11 0 11 C0 7.37 0 3.74 0 0 Z " fill="#F1EFF6" transform="translate(162,96)"/>
<path d="M0 0 C3.3 0 6.6 0 10 0 C10 3.63 10 7.26 10 11 C6.7 11 3.4 11 0 11 C0 7.37 0 3.74 0 0 Z " fill="#34008F" transform="translate(168,113)"/>
</svg>
